#N canvas 64 310 1069 385 10;
#X obj -22834 -8306 vradio 30 1 0 4 \$0-criaAcordes empty empty 0 -8
0 10 -262144 -1 -1 0;
#X text -22789 -8302 Harpsichord (harmônico);
#X text -22788 -8271 Tritono (inharmônico com espaçamento igual)
;
#X text -22787 -8239 Tingshaw (inharmônico natural);
#X obj -22612 -7978 hradio 18 1 0 20 chord_num empty empty 0 -8 0 10
-262144 -1 -1 0;
#N canvas 65 53 1375 847 interno 0;
#X obj -22533 -7853 r $timbre;
#X obj -22533 -7832 timbre;
#X obj -22500 -7810 s $amp;
#X obj -22517 -7791 s $freq;
#X text -22205 -8260 Tocar os acordes encontrados: Ler de um arquivo
os pares de acordo com o timbre;
#X obj -22141 -8035 textfile;
#X msg -22161 -8090 rewind;
#X msg -22096 -8013 stop;
#X obj -22180 -7996 metro 100;
#X obj -21900 -8035 textfile;
#X msg -21920 -8087 rewind;
#X msg -21855 -8013 stop;
#X obj -21939 -7996 metro 100;
#X obj -22141 -7958 tabwrite \$0-ordemX;
#X obj -21900 -7958 tabwrite \$0-ordemY;
#X obj -21671 -8291 loadbang;
#X msg -21671 -8240 \; pd dsp 1;
#X msg -21644 -8197 const 0;
#X obj -21644 -8159 s \$0-ordemX;
#X obj -21671 -8270 t b b;
#X text -21575 -8200 Inicializa os vetores de intervalos;
#X text -21597 -8235 Liga o DSP;
#X obj -21644 -8131 s \$0-ordemY;
#X text -22545 -8260 Selecionar o timbre para criar a lista de acordes
;
#X obj -22536 -8231 r \$0-criaAcordes;
#X obj -22536 -8203 route 0 1 2 3 4;
#X obj -22519 -8059 s type;
#X msg -22141 -8129 read pyDiss/\$1/rNotes.txt;
#X obj -22180 -8234 r type;
#X msg -21900 -8129 read pyDiss/\$1/sNotes.txt;
#X obj -21939 -8161 t b b a;
#X obj -22180 -8162 t b b a;
#X msg -22577 -8164 symbol harpsichord;
#X msg -22519 -8145 symbol tritone;
#X msg -22485 -8126 symbol tingshaw;
#X msg -22444 -8105 symbol harm6;
#X obj -22180 -8214 t a a b;
#X obj -22055 -7773 tabread \$0-ordemX;
#X obj -22196 -7728 tocaParciais;
#X obj -21937 -7755 r $amp;
#X obj -21937 -7774 r $freq;
#X obj -22177 -7774 tabread \$0-ordemY;
#X obj -22196 -7828 t b f f;
#X obj -22196 -7863 r chord_num;
#X text -22194 -7884 Toca o acorde escolhido pelo seletor;
#X text -22530 -7874 Carrega o timbre escolhido para tocar;
#X obj -21354 -8287 loadbang;
#X obj -21313 -8252 t b b;
#X msg -21286 -8233 \; volume 0;
#X msg -21313 -8187 \; rampaDelay 100;
#X obj -22296 -7727 t b b b;
#X msg -22277 -7693 \; volume 1;
#X obj -22296 -7623 delay 2000;
#X msg -22296 -7603 \; volume 0;
#X connect 0 0 1 0;
#X connect 1 1 3 0;
#X connect 1 2 2 0;
#X connect 5 0 13 0;
#X connect 5 1 7 0;
#X connect 6 0 5 0;
#X connect 7 0 8 0;
#X connect 8 0 5 0;
#X connect 9 0 14 0;
#X connect 9 1 11 0;
#X connect 10 0 9 0;
#X connect 11 0 12 0;
#X connect 12 0 9 0;
#X connect 15 0 19 0;
#X connect 17 0 18 0;
#X connect 17 0 22 0;
#X connect 19 0 16 0;
#X connect 19 1 17 0;
#X connect 24 0 25 0;
#X connect 25 0 32 0;
#X connect 25 1 33 0;
#X connect 25 2 34 0;
#X connect 25 3 35 0;
#X connect 27 0 5 0;
#X connect 28 0 36 0;
#X connect 29 0 9 0;
#X connect 30 0 12 0;
#X connect 30 1 10 0;
#X connect 30 2 29 0;
#X connect 31 0 8 0;
#X connect 31 1 6 0;
#X connect 31 2 27 0;
#X connect 32 0 26 0;
#X connect 33 0 26 0;
#X connect 34 0 26 0;
#X connect 35 0 26 0;
#X connect 36 0 31 0;
#X connect 36 1 30 0;
#X connect 36 2 17 0;
#X connect 37 0 38 2;
#X connect 39 0 38 4;
#X connect 40 0 38 3;
#X connect 41 0 38 1;
#X connect 42 0 50 0;
#X connect 42 1 41 0;
#X connect 42 2 37 0;
#X connect 43 0 42 0;
#X connect 46 0 47 0;
#X connect 47 0 49 0;
#X connect 47 1 48 0;
#X connect 50 0 52 0;
#X connect 50 1 51 0;
#X connect 50 2 38 0;
#X connect 52 0 53 0;
#X restore -22181 -8302 pd interno;
#X text -22611 -7993 0 _1 _2 _3 _4 _5 _6 _7 _8 _9 _10 11 12 13 14 15
16 17 18 19;
#X obj -22516 -8305 vradio 30 1 0 5 $timbre empty empty 0 -8 0 10 -262144
-1 -1 0;
#X text -22471 -8301 Harpsichord (harmônico);
#X text -22470 -8270 Tritono (inharmônico com espaçamento igual)
;
#X text -22469 -8238 Tingshaw (inharmônico natural);
#N canvas 0 0 450 300 (subpatch) 0;
#X array \$0-ordemY 20 float 3;
#A 0 0 0 0 0 0 0 0 0 0 0 0 0 0 0 0 0 0 0 0 0;
#X array \$0-ordemX 20 float 3;
#A 0 0 0 0 0 0 0 0 0 0 0 0 0 0 0 0 0 0 0 0 0;
#X coords 0 2 20 0 200 140 1 0 0;
#X restore -22831 -8099 graph;
#X text -22834 -8334 1 - Escolha o timbre para criar os acordes;
#X text -22516 -8333 2 - Escolha o timbre para tocar;
#X text -22614 -8021 3 - Acordes em ordem de consonância sensorial
;
#X obj -22200 -8304 cnv 15 400 300 empty empty empty 20 12 0 14 -262130
-66577 0;
#X text -22185 -8193 2 - Escolha o timbre para tocar os acordes criados
de acordo com a curva de dissonância. (Note que não é necessário
usar o mesmo timbre de criação);
#X text -22182 -8051 Explore as combinações entre timbres e acordes.
;
#X text -22185 -8139 3 - Toque os acordes escolhendo um número no
seletos. Os acordes estão ordenados da mínima dissonância para a
máxima dissonância.;
#X text -22186 -8227 1 - Escolha o timbre base para criação dos acordes.
;
#X text -22187 -8282 Aqui você poderá explorar os acordes tocados
no experimento.;
#X text -22788 -8209 Harmônico (6 parciais);
#X text -22470 -8209 Harmônico (6 parciais);
#X text -22471 -8179 Harmônico (2 parciais);
