#N canvas 65 89 450 300 10;
#X text 349 187 allpartialsatinterval;
#X obj 303 165 list-math *;
#X obj 303 203 s $all;
#X obj 351 241 list length;
#X obj 229 310 f;
#X obj 229 332 s $d;
#X msg 277 229 0;
#X obj 262 310 +;
#X obj 303 134 list;
#X obj 246 75 t b b b b f;
#X obj 208 154 r $d;
#X obj 193 176 f;
#X text 342 285 Calcula a dissonância;
#X obj 246 52 inlet f;
#X obj 324 54 inlet freq1;
#X obj 262 286 innerLoop;
#X obj 261 263 doubleFor;
#X obj 324 76 t a a;
#X obj 193 199 outlet;
#X connect 1 0 2 0;
#X connect 3 0 16 1;
#X connect 4 0 5 0;
#X connect 4 0 7 1;
#X connect 6 0 4 1;
#X connect 6 0 7 1;
#X connect 7 0 4 0;
#X connect 8 0 1 0;
#X connect 9 0 11 0;
#X connect 9 1 16 0;
#X connect 9 2 6 0;
#X connect 9 3 8 0;
#X connect 9 4 1 1;
#X connect 10 0 11 1;
#X connect 11 0 18 0;
#X connect 13 0 9 0;
#X connect 14 0 17 0;
#X connect 15 0 7 0;
#X connect 16 0 15 0;
#X connect 16 1 15 1;
#X connect 17 0 8 1;
#X connect 17 1 3 0;
