#N canvas 65 81 450 300 10;
#X obj 234 100 until;
#X obj 268 132 + 1;
#X obj 234 132 f;
#X obj 234 156 moses;
#X obj 305 132 bang;
#X text 162 184 Indice i;
#X obj 234 240 until;
#X obj 268 272 + 1;
#X obj 234 272 f;
#X obj 234 296 moses;
#X obj 305 272 bang;
#X obj 234 339 f;
#X obj 165 204 f;
#X text 232 320 Indice j;
#X msg 277 241 0;
#X msg 280 101 0;
#X obj 234 187 t b b f;
#X obj 234 360 outlet;
#X obj 165 360 outlet;
#X obj 413 139 f 1;
#X obj 234 72 t b b b;
#X text 409 123 Isso deve ser o numero de parciais;
#X text 475 48 Numero de parciais (limite de i e j);
#X text 273 33 Inicia o loop;
#X obj 428 52 inlet n;
#X obj 234 49 inlet bang;
#X connect 0 0 2 0;
#X connect 1 0 2 1;
#X connect 2 0 1 0;
#X connect 2 0 3 0;
#X connect 3 0 16 0;
#X connect 3 1 4 0;
#X connect 4 0 0 1;
#X connect 6 0 8 0;
#X connect 7 0 8 1;
#X connect 8 0 7 0;
#X connect 8 0 9 0;
#X connect 9 0 11 0;
#X connect 9 1 10 0;
#X connect 10 0 6 1;
#X connect 11 0 17 0;
#X connect 12 0 18 0;
#X connect 14 0 8 1;
#X connect 15 0 2 1;
#X connect 16 0 6 0;
#X connect 16 1 14 0;
#X connect 16 2 12 0;
#X connect 19 0 9 1;
#X connect 19 0 3 1;
#X connect 20 0 0 0;
#X connect 20 1 15 0;
#X connect 20 2 19 0;
#X connect 24 0 19 1;
#X connect 25 0 20 0;
