#N canvas 65 82 364 792 16;
#X obj 46 -73 r $inicia_experimento;
#X obj 46 455 f;
#X obj 46 492 moses;
#X obj 46 399 t b b;
#X obj 83 455 + 1;
#X msg 79 429 0;
#X obj 46 334 t b b b;
#X obj 46 313 bng 15 250 50 0 empty empty empty 17 7 0 10 -262144 -1
-1;
#X msg 214 542 vis 1;
#X obj -307 186 r $gravar;
#X obj -247 396 r $resp;
#X obj -274 421 f;
#X obj 214 515 t b b;
#N canvas 305 470 584 329 questao 0;
#X obj 162 64 bng 30 250 50 0 $toca_1 $A A 8 15 0 25 -128992 -204800
-262144;
#X obj 234 64 bng 30 250 50 0 $toca_2 $B B 8 15 0 25 -128992 -204800
-262144;
#X obj 99 157 vradio 30 1 1 3 $resp $seletor empty 0 -8 0 10 -262144
-1 -1 0;
#X text 141 159 Não sei;
#X text 144 191 A;
#X text 144 221 B;
#X text 74 34 Toque nos botões para ouvir os sons;
#X obj 77 278 bng 30 250 50 0 $gravar $prox empty 8 15 0 25 -204800
-128992 -1;
#N canvas 65 218 1375 588 toca 0;
#X obj 38 21 r $toca_1;
#X obj 288 25 r $toca_2;
#X msg 38 153 \; $A color 16;
#X obj 335 79 f;
#X obj 85 76 f;
#X msg 288 150 \; $B color 16;
#X obj 153 63 r $int1;
#X obj 85 103 s $note;
#X obj 335 107 s $note;
#X obj 441 39 r $int2;
#X msg 198 225 \; volume 1;
#X obj 38 49 t b b b b;
#X obj 138 268 delay 2000;
#X msg 135 303 \; volume 0;
#X msg 522 192 \; volume 1;
#X obj 462 235 delay 2000;
#X msg 459 270 \; volume 0;
#X obj 288 53 t b b b b;
#X connect 0 0 11 0;
#X connect 1 0 17 0;
#X connect 3 0 8 0;
#X connect 4 0 7 0;
#X connect 6 0 4 1;
#X connect 9 0 3 1;
#X connect 11 0 2 0;
#X connect 11 1 4 0;
#X connect 11 2 12 0;
#X connect 11 3 10 0;
#X connect 12 0 13 0;
#X connect 15 0 16 0;
#X connect 17 0 5 0;
#X connect 17 1 3 0;
#X connect 17 2 15 0;
#X connect 17 3 14 0;
#X restore 483 31 pd toca;
#X floatatom 159 10 2 0 0 0 Questão #q -;
#X text 118 280 Próxima;
#X text 70 126 Qual deles parece menos dissonante?;
#X restore 1410 -82 pd questao;
#X obj 72 92 s pd-questao;
#X msg 72 65 vis 1;
#X obj 1858 328 r $timbre;
#X obj 93 623 s $q;
#X obj 1886 413 s f;
#X obj 1915 388 s a;
#X obj 1421 385 tocaParciais;
#X msg 303 544 vis 0;
#X obj 303 570 s pd-questao;
#X text 1422 300 Toca os intervalos no timbre sorteado;
#X obj -274 647 s conj;
#X msg -240 295 \; $A color 11 \; $B color 11 \; $seletor 0;
#X obj 93 597 + 1;
#X obj 1499 358 r f;
#X obj 1538 358 r a;
#N canvas 402 428 450 292 inicio 1;
#X obj 49 70 vradio 30 1 1 3 $sujeito empty empty 0 -8 0 10 -262144
-1 -1 0;
#X text 54 39 Em que grupo você se encaixa?;
#X obj 48 185 bng 30 250 50 0 def empty empty 8 15 0 25 -4034 -128992
-1;
#X text 88 70 Apenas ouço música;
#X text 86 188 Próxima;
#X text 89 103 Estudei/Estudo música;
#X text 88 135 Trabalhei/Trabalho com música;
#X restore 1410 -110 pd inicio;
#N canvas 410 416 450 300 fim 0;
#X obj 44 75 bng 30 250 50 0 $novo empty empty 8 15 0 25 -159808 -128992
-1;
#X text 74 9 Obrigada por sua participação;
#X text 86 78 Iniciar novo experimento;
#X restore 1410 -54 pd fim;
#X obj 214 570 s pd-fim;
#X obj -307 222 t b b b;
#X obj 730 71 list-permute;
#X obj 730 98 list;
#X obj 730 126 s ordem_qts;
#X obj 46 -40 t b b b b b;
#X obj 182 808 list split 1;
#X obj 182 779 list append;
#X obj 182 748 t b l;
#X obj 182 719 r ordem_qts;
#X text 34 650 Se for primeira \, pega valor já definido;
#X obj 182 836 s par;
#X obj 33 911 r par;
#X text 139 875 Esse bloco pega o par aleatório da lista carrega os
mínimos correspondentes na questão. Houve um tratamento na primeira
questão para que nenhum par fosse perdido.;
#X obj 46 571 t f f;
#X floatatom 131 1011 5 0 0 0 - - -;
#X obj 1858 361 timbre;
#X text 1856 299 Recupera o timbre;
#X text 1409 -138 Patchs para usuário;
#X obj 215 -14 cnv 15 500 350 empty empty empty 60 60 0 14 -232576
-45076 0;
#X obj 308 9 r $sujeito;
#X obj 281 73 route 0 1 2;
#X obj 281 39 0;
#X obj 234 9 t b b;
#X obj 506 279 textfile;
#X obj 459 8 r conj;
#X msg 340 237 write \$1;
#X msg 254 238 read \$1;
#X obj 342 211 l;
#X obj 254 209 l;
#X obj 459 35 t b a;
#X text 232 -14 Preparar o arquivo texto;
#X obj 215 306 cnv 15 500 200 empty empty empty 20 12 0 14 -203904
-16662 0;
#X msg 234 383 vis 1;
#X msg 252 405 vis 0;
#X obj 346 335 loadbang;
#X msg 379 388 vis 0;
#X obj 379 414 s experimento.pd;
#X obj 437 337 r $novo;
#X msg 548 383 \; pd dsp 1;
#X obj 346 360 t b b b;
#X obj 234 429 s pd-inicio;
#X obj 401 438 s pd-fim;
#X text 237 309 Coordenar a apresentação dos patchs;
#X text 1557 448 Referência: Timbre 0 - Harpsichord Timbre 1 - Tritone
Timbre 2 - Tingshaw Timbre 3 - Harmônico 6;
#X floatatom 33 1086 5 0 0 0 - - -;
#X text 238 959 Sorteia timbres;
#X obj 1421 366 bng 15 250 50 0 empty empty empty 17 7 0 10 -262144
-1 -1;
#X obj 439 464 s pd-definicao;
#N canvas 407 420 451 292 definicao 0;
#X obj 38 129 bng 30 250 50 0 $inicia_experimento empty empty 8 15
0 25 -4034 -128992 -1;
#X text 77 133 Iniciar experimento;
#X obj 43 -4 cnv 15 110 20 empty empty empty 20 12 0 14 -204800 -66577
0;
#X obj 43 57 cnv 15 110 20 empty empty empty 20 12 0 14 -204800 -66577
0;
#X text 42 -7 Dissonância: reunião de sons que causam;
#X text 42 14 impressão desagradável ao ouvido;
#X text 42 55 Consonância: considerado agradável \, em;
#X text 42 75 relação a uma dissonância;
#X text 31 -85 ________________________;
#X text 31 -48 ________________________;
#X text 38 -56 Definições importantes;
#X restore 1524 -109 pd definicao;
#X obj 651 414 r def;
#X msg 651 441 vis 1;
#X text -171 394 Resposta;
#X obj -117 559 r $q;
#X text -71 559 Questão;
#X obj -296 676 print Resposta;
#X obj 975 1076 s $int1;
#X obj 975 1037 tabread;
#X obj 571 993 list-permute;
#X obj 544 1072 s;
#X obj 601 1121 s;
#X obj 571 945 bng 15 250 50 0 empty empty empty 17 7 0 10 -262144
-1 -1;
#X text 462 1145 Aleatoriza a ordem dos acordes;
#X obj 571 1020 unpack s s;
#N canvas 0 0 450 300 (subpatch) 0;
#X array timbre1 5 float 3;
#A 0 1.41421 1.23114 0 0 0;
#X coords 0 2 5 0 200 140 1 0 0;
#X restore 1813 766 graph;
#N canvas 0 0 450 300 (subpatch) 0;
#X array timbre2 5 float 3;
#A 0 1.65864 1.42405 1.82766 1.27456 1.54756;
#X coords 0 2 5 0 200 140 1 0 0;
#X restore 1813 927 graph;
#N canvas 0 0 450 300 (subpatch) 0;
#X array timbre3 5 float 3;
#A 0 1.50525 1.67018 1.33793 1.76541 1.24833;
#X coords 0 2 5 0 200 140 1 0 0;
#X restore 1813 1093 graph;
#N canvas 0 0 450 300 (subpatch) 0;
#X array timbre0 5 float 3;
#A 0 1.75321 1.67018 1.71713 1.50525 1.33793;
#X coords 0 2 5 0 200 140 1 0 0;
#X restore 1814 609 graph;
#X msg 730 -17 1 2 3 4 12 13 14 23 24 34 101 201 202 203 204 212 213
214 223 224 234 301 302 303 304 312 313 314 323 324 334;
#X text 732 -46 Sorteia a ordem das questões(timbre-diade-diade);
#X obj 131 1038 s $diade1;
#X obj 33 1112 s $diade2;
#X obj 230 1145 s $timbre;
#X obj 425 1049 r $diade1;
#X obj 472 1098 r $diade2;
#X msg 571 1047 symbol diade\$1;
#X msg 628 1073 symbol diade\$1;
#X msg 1022 1007 set timbre\$1;
#X obj 1022 978 r $timbre;
#X text 794 874 Seleciona os intervalos correspondentes ao acorde e
timbre sorteados;
#X obj 1238 1026 tabread;
#X msg 1285 996 set timbre\$1;
#X obj 1285 967 r $timbre;
#X obj 1238 1065 s $int2;
#X obj 1421 251 t b f;
#X obj 1421 215 r $note;
#X obj 199 1171 print Timbre;
#X obj 101 1063 print Diade1;
#X obj 33 1139 print Diade2;
#X obj -149 532 r diadeB;
#X obj -180 506 r diadeA;
#X obj 908 993 r diadeA;
#X obj 1171 982 r diadeB;
#X obj -212 480 r $timbre;
#X text -115 480 Timbre;
#X obj -274 587 pack f f f f f;
#X msg -274 617 add \$1 \$2 \$3 \$4 \$5;
#X obj 571 919 r $timbre;
#X obj 33 938 expr $f1 % 10 \; int(($f1%100) / 10) \; int($f1 / 100)
\;;
#X msg 113 398 31;
#X msg 571 963 list A B;
#X msg 281 103 list leigoD.txt;
#X msg 316 131 list poucoD.txt;
#X msg 352 158 list muitoD.txt;
#X obj 46 673 moses 1;
#X obj 161 764 bng 15 250 50 0 empty empty empty 17 7 0 10 -262144
-1 -1;
#X obj 1099 297 loadbang;
#X msg 1146 355 \; volume 0;
#X obj 1099 325 t b b;
#X msg 1099 415 \; rampaDelay 100;
#X connect 0 0 36 0;
#X connect 1 0 2 0;
#X connect 1 0 4 0;
#X connect 2 0 45 0;
#X connect 2 1 12 0;
#X connect 3 0 1 0;
#X connect 4 0 1 1;
#X connect 5 0 1 1;
#X connect 6 0 3 0;
#X connect 6 1 5 0;
#X connect 6 2 130 0;
#X connect 7 0 6 0;
#X connect 8 0 31 0;
#X connect 9 0 32 0;
#X connect 10 0 11 1;
#X connect 11 0 126 0;
#X connect 12 0 8 0;
#X connect 12 1 21 0;
#X connect 15 0 14 0;
#X connect 16 0 47 0;
#X connect 21 0 22 0;
#X connect 26 0 17 0;
#X connect 27 0 20 3;
#X connect 28 0 20 4;
#X connect 32 0 3 0;
#X connect 32 1 25 0;
#X connect 32 2 11 0;
#X connect 33 0 34 0;
#X connect 34 0 35 0;
#X connect 36 0 6 0;
#X connect 36 1 15 0;
#X connect 36 2 60 0;
#X connect 36 3 54 0;
#X connect 36 4 99 0;
#X connect 37 0 42 0;
#X connect 37 1 38 1;
#X connect 38 0 37 0;
#X connect 39 0 38 0;
#X connect 39 1 38 1;
#X connect 40 0 39 0;
#X connect 43 0 129 0;
#X connect 45 0 135 0;
#X connect 45 1 26 0;
#X connect 46 0 101 0;
#X connect 46 0 118 0;
#X connect 47 1 18 0;
#X connect 47 2 19 0;
#X connect 51 0 53 1;
#X connect 52 0 132 0;
#X connect 52 1 133 0;
#X connect 52 2 134 0;
#X connect 53 0 52 0;
#X connect 54 0 64 0;
#X connect 54 1 53 0;
#X connect 56 0 61 0;
#X connect 57 0 55 0;
#X connect 58 0 55 0;
#X connect 59 0 57 0;
#X connect 60 0 58 0;
#X connect 61 0 59 0;
#X connect 61 1 55 0;
#X connect 64 0 72 0;
#X connect 65 0 72 0;
#X connect 66 0 71 0;
#X connect 67 0 68 0;
#X connect 67 0 73 0;
#X connect 67 0 79 0;
#X connect 69 0 71 0;
#X connect 71 0 64 0;
#X connect 71 1 67 0;
#X connect 71 2 70 0;
#X connect 76 0 102 0;
#X connect 76 0 119 0;
#X connect 78 0 20 0;
#X connect 81 0 82 0;
#X connect 82 0 79 0;
#X connect 84 0 126 4;
#X connect 88 0 87 0;
#X connect 89 0 94 0;
#X connect 92 0 131 0;
#X connect 94 0 106 0;
#X connect 94 1 107 0;
#X connect 99 0 33 0;
#X connect 104 0 90 0;
#X connect 105 0 91 0;
#X connect 106 0 90 1;
#X connect 107 0 91 1;
#X connect 108 0 88 0;
#X connect 109 0 108 0;
#X connect 111 0 114 0;
#X connect 112 0 111 0;
#X connect 113 0 112 0;
#X connect 115 0 78 0;
#X connect 115 1 20 1;
#X connect 116 0 115 0;
#X connect 120 0 126 3;
#X connect 121 0 126 2;
#X connect 122 0 88 0;
#X connect 123 0 111 0;
#X connect 124 0 126 1;
#X connect 126 0 127 0;
#X connect 126 0 86 0;
#X connect 127 0 24 0;
#X connect 128 0 92 0;
#X connect 129 0 76 0;
#X connect 129 1 46 0;
#X connect 129 2 103 0;
#X connect 129 2 117 0;
#X connect 130 0 2 1;
#X connect 131 0 89 0;
#X connect 132 0 59 1;
#X connect 132 0 60 1;
#X connect 133 0 59 1;
#X connect 133 0 60 1;
#X connect 134 0 59 1;
#X connect 134 0 60 1;
#X connect 135 1 136 0;
#X connect 136 0 38 0;
#X connect 137 0 139 0;
#X connect 139 0 140 0;
#X connect 139 1 138 0;
#X coords 0 792 1 791 85 60 0;
