#N canvas 65 53 1375 847 16;
#X obj 30 -47 r $inicia_experimento;
#X obj 30 481 f;
#X obj 30 518 moses;
#X obj 30 425 t b b;
#X obj 67 481 + 1;
#X msg 63 455 0;
#X obj 30 360 t b b b;
#X obj 30 339 bng 15 250 50 0 empty empty empty 17 7 0 10 -262144 -1
-1;
#X obj 1405 354 r $toca2;
#X obj 1405 383 t b f;
#X msg 198 568 vis 1;
#X obj -244 212 r $gravar;
#X obj -184 421 r $resp;
#X obj -211 447 f;
#X obj -211 574 pack f f f f;
#X obj 198 541 t b b;
#N canvas 730 363 584 329 questao 0;
#X obj 162 64 bng 30 250 50 0 $toca_1 $A A 8 15 0 25 -128992 -204800
-262144;
#X obj 234 64 bng 30 250 50 0 $toca_2 $B B 8 15 0 25 -128992 -204800
-262144;
#X obj 99 157 vradio 30 1 1 3 $resp $seletor empty 0 -8 0 10 -262144
-1 -1 0;
#X text 141 159 Não sei;
#X text 144 191 A;
#X text 144 221 B;
#X text 74 34 Toque nos botões para ouvir os sons;
#X text 70 126 Qual deles parece mais consonante?;
#X obj 77 278 bng 30 250 50 0 $gravar $prox empty 8 15 0 25 -204800
-128992 -1;
#N canvas 65 186 1375 588 toca 0;
#X obj 492 76 print TM;
#X obj 85 21 r $toca_1;
#X obj 335 25 r $toca_2;
#X obj 85 144 s $toca2;
#X obj 335 147 s $toca2;
#X obj 112 48 r $int1;
#X obj 492 47 r $timbre;
#X obj 362 52 r $int2;
#X msg 70 184 \; $A color 16;
#X obj 335 79 f;
#X obj 85 76 f;
#X obj 38 49 t b b;
#X obj 288 53 t b b;
#X msg 361 190 \; $B color 16;
#X obj 463 315 s pd-questao;
#X msg 474 269 msg 200 200 OI;
#X obj 85 113 expr 1+$f1/100;
#X obj 335 113 expr 1+$f1/100;
#X connect 1 0 11 0;
#X connect 2 0 12 0;
#X connect 5 0 10 1;
#X connect 6 0 0 0;
#X connect 7 0 9 1;
#X connect 9 0 17 0;
#X connect 10 0 16 0;
#X connect 11 0 8 0;
#X connect 11 1 10 0;
#X connect 12 0 13 0;
#X connect 12 1 9 0;
#X connect 15 0 14 0;
#X connect 16 0 3 0;
#X connect 17 0 4 0;
#X restore 483 31 pd toca;
#X floatatom 159 10 2 0 0 0 Questão #q -;
#X text 118 280 Próxima;
#X restore 1394 -56 pd questao;
#X obj 56 118 s pd-questao;
#X msg 56 91 vis 1;
#X obj 144 1267 s $int2;
#X obj 63 1236 s $int1;
#X obj -172 496 r $int1;
#X obj -133 521 r $int2;
#X obj -94 546 r $timbre;
#X obj 1394 50 r $timbre;
#X obj 77 649 s $q;
#X obj 1422 135 s f;
#X obj 1451 110 s a;
#X obj 1405 411 tocaParciais;
#X msg 287 570 vis 0;
#X obj 287 596 s pd-questao;
#X text 1406 326 Toca os intervalos no timbre sorteado;
#X obj -233 663 print conj;
#X obj -211 634 s conj;
#X msg -211 605 add \$1 \$2 \$3 \$4;
#X msg -177 321 \; $A color 11 \; $B color 11 \; $seletor 0;
#X obj 77 623 + 1;
#X obj 1483 384 r f;
#X obj 1522 384 r a;
#N canvas 451 545 450 292 inicio 0;
#X obj 49 70 vradio 30 1 1 3 $sujeito empty empty 0 -8 0 10 -262144
-1 -1 1;
#X text 88 71 Leigo;
#X text 90 104 Possuo alguma experiência musical;
#X text 89 134 Sou profissional da música;
#X text 54 39 Em que grupo você se encaixa?;
#X obj 48 185 bng 30 250 50 0 $inicia_experimento empty empty 8 15
0 25 -4034 -128992 -1;
#X text 84 188 Iniciar experimento;
#X restore 1394 -84 pd inicio;
#N canvas 518 353 450 300 fim 0;
#X text 56 91 Novo experimento;
#X text 55 34 FIM;
#X obj 59 117 bng 30 250 50 0 $novo empty empty 8 15 0 25 -159808 -128992
-1;
#X restore 1394 -28 pd fim;
#X obj 198 596 s pd-fim;
#X obj -244 248 t b b b;
#X obj 97 1197 tabread $sorteia_intervalo;
#X obj 30 1106 moses 0;
#X obj 97 1132 t b b;
#X obj 97 1159 f;
#X obj 144 1159 f;
#X obj 144 1236 tabread $sorteia_intervalo;
#X obj 30 1044 f;
#X obj 133 1043 f;
#X obj 30 1073 expr if ($f1 == $f2 \, -1 \, 0) \;;
#X obj 714 85 list-permute;
#X obj 714 112 list;
#X obj 714 140 s ordem_qts;
#X obj 30 -14 t b b b b b;
#X text 716 -20 Sorteia a ordem das questões;
#X obj 166 834 list split 1;
#X obj 166 805 list append;
#X obj 166 774 t b l;
#X obj 166 745 r ordem_qts;
#X obj 30 938 f;
#X obj 30 699 moses 1;
#X obj 97 752 t b b;
#X text 18 676 Se for primeira \, pega valor já definido;
#X obj 166 862 s par;
#X obj 57 912 r par;
#X text 123 901 Esse bloco pega o par aleatório da lista carrega os
mínimos correspondentes na questão. Houve um tratamento na primeira
questão para que nenhum par fosse perdido.;
#X obj 30 597 t f f;
#X text 314 977 Sorteia timbre;
#X floatatom 320 1014 5 0 0 0 - - -;
#X obj 320 1041 s $timbre;
#X obj 30 965 expr $f1 % 5 \; int(int($f1%20) / 5) \; int($f1 / 20)
;
#X text 326 1073 Envia somente os intervalos diferentes;
#X msg 714 9 1 2 3 4 7 8 9 13 14 19 21 22 23 24 27 28 29 33 34 39 41
42 43 44 47 48 49 53 54 59;
#X msg 97 424 30;
#X obj 1394 83 timbre;
#X text 1392 21 Recupera o timbre;
#X text 1393 -112 Patchs para usuário;
#X obj 199 12 cnv 15 500 350 empty empty empty 60 60 0 14 -232576 -45076
0;
#X obj 292 35 r $sujeito;
#X obj 265 99 route 0 1 2;
#X obj 265 65 0;
#X obj 218 35 t b b;
#X obj 490 305 textfile;
#X obj 443 34 r conj;
#X msg 324 263 write \$1;
#X msg 238 264 read \$1;
#X obj 326 237 l;
#X obj 238 235 l;
#X msg 265 129 list leigo.txt;
#X msg 300 157 list pouco.txt;
#X msg 336 184 list muito.txt;
#X obj 443 61 t b a;
#X text 216 12 Preparar o arquivo texto;
#X obj 199 332 cnv 15 500 200 empty empty empty 20 12 0 14 -203904
-16662 0;
#X msg 218 409 vis 1;
#X msg 236 431 vis 0;
#X obj 330 361 loadbang;
#X msg 363 414 vis 0;
#X obj 363 440 s experimento.pd;
#X obj 421 363 r $novo;
#X msg 532 409 \; pd dsp 1;
#X obj 330 386 t b b b;
#X obj 218 455 s pd-inicio;
#X obj 385 464 s pd-fim;
#X text 221 335 Coordenar a apresentação dos patchs;
#N canvas 0 0 450 300 (subpatch) 0;
#X array timbre1 5 float 3;
#A 0 1.41421 1.23114 0 0 0;
#X coords 0 2 5 0 200 140 1 0 0;
#X restore 865 498 graph;
#N canvas 0 0 450 300 (subpatch) 0;
#X array timbre2 5 float 3;
#A 0 1.65864 1.42405 1.82766 1.27456 1.54756;
#X coords 0 2 5 0 200 140 1 0 0;
#X restore 862 673 graph;
#N canvas 0 0 450 300 (subpatch) 0;
#X array timbre3 5 float 3;
#A 0 1.50525 1.67018 1.33793 1.76541 1.24833;
#X coords 0 2 5 0 200 140 1 0 0;
#X restore 861 862 graph;
#N canvas 0 0 450 300 (subpatch) 0;
#X array timbre0 5 float 3;
#A 0 1.75321 1.67018 1.71713 1.50525 1.33793;
#X coords 0 2 5 0 200 140 1 0 0;
#X restore 874 315 graph;
#X connect 0 0 55 0;
#X connect 1 0 2 0;
#X connect 1 0 4 0;
#X connect 2 0 68 0;
#X connect 2 1 15 0;
#X connect 3 0 1 0;
#X connect 4 0 1 1;
#X connect 5 0 1 1;
#X connect 6 0 3 0;
#X connect 6 1 5 0;
#X connect 6 2 75 0;
#X connect 7 0 6 0;
#X connect 8 0 9 0;
#X connect 9 0 28 0;
#X connect 9 1 28 1;
#X connect 10 0 41 0;
#X connect 11 0 42 0;
#X connect 12 0 13 1;
#X connect 13 0 14 0;
#X connect 14 0 32 0;
#X connect 14 0 34 0;
#X connect 15 0 10 0;
#X connect 15 1 29 0;
#X connect 18 0 17 0;
#X connect 21 0 14 1;
#X connect 22 0 14 2;
#X connect 23 0 14 3;
#X connect 24 0 76 0;
#X connect 29 0 30 0;
#X connect 34 0 33 0;
#X connect 36 0 25 0;
#X connect 37 0 28 3;
#X connect 38 0 28 4;
#X connect 42 0 3 0;
#X connect 42 1 13 0;
#X connect 42 2 35 0;
#X connect 43 0 20 0;
#X connect 44 0 63 0;
#X connect 44 1 45 0;
#X connect 45 0 46 0;
#X connect 45 1 47 0;
#X connect 46 0 43 0;
#X connect 47 0 48 0;
#X connect 48 0 19 0;
#X connect 49 0 51 0;
#X connect 49 0 46 1;
#X connect 50 0 51 1;
#X connect 50 0 47 1;
#X connect 51 0 44 0;
#X connect 52 0 53 0;
#X connect 53 0 54 0;
#X connect 55 0 6 0;
#X connect 55 1 18 0;
#X connect 55 2 89 0;
#X connect 55 3 83 0;
#X connect 55 4 74 0;
#X connect 57 0 65 0;
#X connect 57 1 58 1;
#X connect 58 0 57 0;
#X connect 59 0 58 0;
#X connect 59 1 58 1;
#X connect 60 0 59 0;
#X connect 61 0 72 0;
#X connect 62 0 61 0;
#X connect 62 1 63 0;
#X connect 63 0 61 0;
#X connect 63 1 58 0;
#X connect 66 0 61 1;
#X connect 68 0 62 0;
#X connect 68 1 36 0;
#X connect 70 0 71 0;
#X connect 72 0 49 0;
#X connect 72 1 50 0;
#X connect 72 2 70 0;
#X connect 74 0 52 0;
#X connect 75 0 2 1;
#X connect 76 1 26 0;
#X connect 76 2 27 0;
#X connect 80 0 82 1;
#X connect 81 0 90 0;
#X connect 81 1 91 0;
#X connect 81 2 92 0;
#X connect 82 0 81 0;
#X connect 83 0 96 0;
#X connect 83 1 82 0;
#X connect 85 0 93 0;
#X connect 86 0 84 0;
#X connect 87 0 84 0;
#X connect 88 0 86 0;
#X connect 89 0 87 0;
#X connect 90 0 88 1;
#X connect 90 0 89 1;
#X connect 91 0 88 1;
#X connect 91 0 89 1;
#X connect 92 0 88 1;
#X connect 92 0 89 1;
#X connect 93 0 88 0;
#X connect 93 1 84 0;
#X connect 96 0 104 0;
#X connect 97 0 104 0;
#X connect 98 0 103 0;
#X connect 99 0 100 0;
#X connect 99 0 105 0;
#X connect 101 0 103 0;
#X connect 103 0 96 0;
#X connect 103 1 99 0;
#X connect 103 2 102 0;
#X coords 0 847 1 846 85 60 0;
