#N canvas 65 85 395 819 16;
#X obj 46 -46 r $inicia_experimento;
#X obj 46 482 f;
#X obj 46 519 moses;
#X obj 46 426 t b b;
#X obj 83 482 + 1;
#X msg 79 456 0;
#X obj 46 361 t b b b;
#X obj 46 340 bng 15 250 50 0 empty empty empty 17 7 0 10 -262144 -1
-1;
#X obj 1421 242 r $toca2;
#X msg 214 569 vis 1;
#X obj -307 213 r $gravar;
#X obj -247 423 r $resp;
#X obj -274 448 f;
#X obj 214 542 t b b;
#N canvas 323 446 584 329 questao 0;
#X obj 162 64 bng 30 250 50 0 $toca_1 $A A 8 15 0 25 -24198 -204800
-262144;
#X obj 234 64 bng 30 250 50 0 $toca_2 $B B 8 15 0 25 -24198 -204800
-262144;
#X obj 99 157 vradio 30 1 1 3 $resp $seletor empty 0 -8 0 10 -262144
-1 -1 0;
#X text 141 159 Não sei;
#X text 144 191 A;
#X text 144 221 B;
#X text 74 34 Toque nos botões para ouvir os sons;
#X obj 77 278 bng 30 250 50 0 $gravar $prox empty 8 15 0 25 -204800
-128992 -1;
#N canvas 65 210 1375 588 toca 0;
#X obj 38 21 r $toca_1;
#X obj 288 25 r $toca_2;
#X obj 85 103 s $toca2;
#X obj 335 107 s $toca2;
#X msg 38 153 \; $A color 16;
#X obj 335 79 f;
#X obj 85 76 f;
#X msg 288 150 \; $B color 16;
#X obj 179 21 r timbreA;
#X obj 451 44 r timbreB;
#X obj 38 49 t b b b b;
#X obj 288 53 t b b b b;
#X obj 124 322 delay 2000;
#X msg 282 308 \; volume 1;
#X msg 172 364 \; volume 0;
#X connect 0 0 10 0;
#X connect 1 0 11 0;
#X connect 5 0 3 0;
#X connect 6 0 2 0;
#X connect 8 0 6 1;
#X connect 9 0 5 1;
#X connect 10 0 4 0;
#X connect 10 1 6 0;
#X connect 10 2 12 0;
#X connect 10 3 13 0;
#X connect 11 0 7 0;
#X connect 11 1 5 0;
#X connect 11 2 12 0;
#X connect 11 3 13 0;
#X connect 12 0 14 0;
#X restore 483 31 pd toca;
#X floatatom 159 10 2 0 0 0 Questão #q -;
#X text 118 280 Próxima;
#X text 70 126 Qual deles parece menos dissonante?;
#X restore 1410 -55 pd questao;
#X obj 72 119 s pd-questao;
#X msg 72 92 vis 1;
#X obj 1858 355 r $timbre;
#X obj 93 650 s $q;
#X obj 1886 440 s f;
#X obj 1915 415 s a;
#X obj 1421 412 tocaParciais;
#X msg 303 571 vis 0;
#X obj 303 597 s pd-questao;
#X text 1422 327 Toca os intervalos no timbre sorteado;
#X obj -274 674 s conj;
#X msg -240 322 \; $A color 11 \; $B color 11 \; $seletor 0;
#X obj 93 624 + 1;
#X obj 1499 385 r f;
#X obj 1538 385 r a;
#N canvas 381 456 450 292 inicio 1;
#X obj 49 70 vradio 30 1 1 3 $sujeito empty empty 0 -8 0 10 -262144
-1 -1 0;
#X text 54 39 Em que grupo você se encaixa?;
#X obj 48 185 bng 30 250 50 0 def empty empty 8 15 0 25 -4034 -128992
-1;
#X text 88 70 Apenas ouço música;
#X text 89 103 Estudo música;
#X text 88 135 Trabalho com música;
#X text 86 188 Próxima;
#X restore 1410 -83 pd inicio;
#N canvas 422 400 450 300 fim 0;
#X text 86 55 Novo experimento;
#X text 199 4 FIM;
#X obj 44 52 bng 30 250 50 0 $novo empty empty 8 15 0 25 -159808 -128992
-1;
#X restore 1410 -27 pd fim;
#X obj 214 597 s pd-fim;
#X obj -307 249 t b b b;
#X obj 730 98 list-permute;
#X obj 730 125 list;
#X obj 730 153 s ordem_qts;
#X obj 46 -13 t b b b b b;
#X obj 182 835 list split 1;
#X obj 182 806 list append;
#X obj 182 775 t b l;
#X obj 182 746 r ordem_qts;
#X text 34 677 Se for primeira \, pega valor já definido;
#X obj 182 863 s par;
#X obj 33 937 r par;
#X text 139 902 Esse bloco pega o par aleatório da lista carrega os
mínimos correspondentes na questão. Houve um tratamento na primeira
questão para que nenhum par fosse perdido.;
#X obj 46 598 t f f;
#X floatatom 150 1047 5 0 0 0 - - -;
#X obj 1858 388 timbre;
#X text 1856 326 Recupera o timbre;
#X text 1409 -111 Patchs para usuário;
#X obj 215 13 cnv 15 500 350 empty empty empty 60 60 0 14 -232576 -45076
0;
#X obj 308 36 r $sujeito;
#X obj 281 100 route 0 1 2;
#X obj 281 66 0;
#X obj 234 36 t b b;
#X obj 506 306 textfile;
#X obj 459 35 r conj;
#X msg 340 264 write \$1;
#X msg 254 265 read \$1;
#X obj 342 238 l;
#X obj 254 236 l;
#X obj 459 62 t b a;
#X text 232 13 Preparar o arquivo texto;
#X obj 215 333 cnv 15 500 200 empty empty empty 20 12 0 14 -203904
-16662 0;
#X msg 234 410 vis 1;
#X msg 252 432 vis 0;
#X obj 346 362 loadbang;
#X msg 379 415 vis 0;
#X obj 379 441 s experimento.pd;
#X obj 437 364 r $novo;
#X msg 548 410 \; pd dsp 1;
#X obj 346 387 t b b b;
#X obj 234 456 s pd-inicio;
#X obj 401 465 s pd-fim;
#X text 237 336 Coordenar a apresentação dos patchs;
#N canvas 0 0 450 300 (subpatch) 0;
#X array timbre1X 5 float 3;
#A 0 1.21419 1.18921 1 1 1;
#X array timbre1Y 5 float 3;
#A 0 1.71713 1.40444 1 1 1;
#X coords 0 2 5 1 200 140 1 0 0;
#X restore 1553 824 graph;
#N canvas 0 0 450 300 (subpatch) 0;
#X array timbre2X 5 float 3;
#A 0 1.41421 1.29235 1.15669 1.26576 1.26576;
#X array timbre2Y 5 float 3;
#A 0 1.64718 1.64718 1.64718 1.61328 1.64718;
#X coords 0 2 5 1 200 140 1 0 0;
#X restore 1550 1017 graph;
#N canvas 0 0 450 300 (subpatch) 0;
#X array timbre3X 5 float 3;
#A 0 1.32869 1.24833 1.23971 1.38511 1.37554;
#X array timbre3Y 5 float 3;
#A 0 1.65864 1.49485 1.65864 1.49485 1.65864;
#X coords 0 2 5 1 200 140 1 0 0;
#X restore 1548 1208 graph;
#N canvas 0 0 450 300 (subpatch) 0;
#X array timbre0X 5 float 3;
#A 0 1.32868 1.24833 1.32868 1.37554 1.37554;
#X array timbre0Y 5 float 3;
#A 0 1.65864 1.65864 1.70527 1.71713 1.68179;
#X coords 0 2 5 1 200 140 1 0 0;
#X restore 1554 631 graph;
#X text 1557 475 Referência: Timbre 0 - Harpsichord Timbre 1 - Tritone
Timbre 2 - Tingshaw Timbre 3 - Harmônico 6;
#X floatatom 262 1047 5 0 0 0 - - -;
#X text 238 986 Sorteia timbres;
#X obj 1421 393 bng 15 250 50 0 empty empty empty 17 7 0 10 -262144
-1 -1;
#X obj 1450 439 r $int1;
#X obj 1479 468 r $int2;
#X obj -4 1059 print Acorde;
#X obj 120 1099 print Timbre1;
#X obj 262 1100 print Timbre2;
#X obj 1421 278 t b f;
#X text 732 -19 Sorteia a ordem das questões(timbre-timbre-acorde)
;
#X msg 113 425 51;
#X obj 439 491 s pd-definicao;
#N canvas 408 420 451 292 definicao 0;
#X obj 38 129 bng 30 250 50 0 $inicia_experimento empty empty 8 15
0 25 -4034 -128992 -1;
#X text 77 133 Iniciar experimento;
#X obj 43 -4 cnv 15 110 20 empty empty empty 20 12 0 14 -204800 -66577
0;
#X obj 43 57 cnv 15 110 20 empty empty empty 20 12 0 14 -204800 -66577
0;
#X text 42 -7 Dissonância: reunião de sons que causam;
#X text 42 14 impressão desagradável ao ouvido;
#X text 42 55 Consonância: considerado agradável \, em;
#X text 42 75 relação a uma dissonância;
#X text 31 -85 ________________________;
#X text 31 -48 ________________________;
#X text 38 -56 Definições importantes;
#X restore 1524 -82 pd definicao;
#X obj 651 441 r def;
#X msg 651 468 vis 1;
#X text -115 507 Acorde;
#X text -171 421 Resposta;
#X obj -117 586 r $q;
#X text -71 586 Questão;
#X obj -4 1033 s $acorde;
#X obj -212 507 r $acorde;
#X obj -296 703 print Resposta;
#X obj 975 931 r $acorde;
#X obj 1100 930 r $timbre1;
#X obj 1088 1111 s $int2;
#X obj 835 1105 s $int1;
#X obj 1088 1080 tabread;
#X msg 909 1036 set timbre\$1X;
#X msg 1147 1042 set timbre\$1Y;
#X obj 1100 956 t f f;
#X obj 975 957 t f f;
#X text 794 901 Seleciona os intervalos correspondentes ao acorde e
timbre sorteados;
#X obj 571 1020 list-permute;
#X obj 544 1099 s;
#X obj 601 1148 s;
#X obj -274 614 pack f f f f f f;
#X text -136 482 Teoria resp;
#X obj 571 972 bng 15 250 50 0 empty empty empty 17 7 0 10 -262144
-1 -1;
#X text 462 1172 Aleatoriza a ordem dos acordes;
#X msg -274 644 add \$1 \$2 \$3 \$4 \$5 \$6;
#X obj 150 1074 s $timbre1;
#X obj 262 1073 s $timbre2;
#X obj 425 1076 r $timbre1;
#X obj 472 1125 r $timbre2;
#X msg 571 1074 symbol timbre\$1;
#X msg 628 1100 symbol timbre\$1;
#X obj -243 481 r $timbre1;
#X obj -180 533 r timbreA;
#X obj -149 559 r timbreB;
#X obj 571 1047 unpack s s;
#X msg 571 990 list A B;
#X msg 281 130 list leigoT.txt;
#X msg 316 158 list poucoT.txt;
#X msg 352 184 list muitoT.txt;
#X obj 46 700 moses 1;
#X msg 730 10 list 10 20 30 11 21 31 12 22 32 13 23 33 14 24 34 100
120 130 101 121 131 200 210 230 201 211 231 202 212 232 203 213 233
204 214 234 300 310 320 301 311 321 302 312 322 303 313 323 304 314
324;
#X obj 161 791 bng 15 250 50 0 empty empty empty 17 7 0 10 -262144
-1 -1;
#X obj 835 1066 tabread;
#X obj 33 965 expr $f1 % 10 \; int($f1 / 100) \; int(($f1%100) / 10)
\;;
#X obj 571 946 r $acorde;
#X obj 748 247 loadbang;
#X obj 748 302 s rampaDelay;
#X msg 748 275 100;
#X connect 0 0 37 0;
#X connect 1 0 2 0;
#X connect 1 0 4 0;
#X connect 2 0 46 0;
#X connect 2 1 13 0;
#X connect 3 0 1 0;
#X connect 4 0 1 1;
#X connect 5 0 1 1;
#X connect 6 0 3 0;
#X connect 6 1 5 0;
#X connect 6 2 91 0;
#X connect 7 0 6 0;
#X connect 8 0 89 0;
#X connect 9 0 32 0;
#X connect 10 0 33 0;
#X connect 11 0 12 1;
#X connect 12 0 116 0;
#X connect 13 0 9 0;
#X connect 13 1 22 0;
#X connect 16 0 15 0;
#X connect 17 0 48 0;
#X connect 22 0 23 0;
#X connect 27 0 18 0;
#X connect 28 0 21 3;
#X connect 29 0 21 4;
#X connect 33 0 3 0;
#X connect 33 1 26 0;
#X connect 33 2 12 0;
#X connect 34 0 35 0;
#X connect 35 0 36 0;
#X connect 37 0 6 0;
#X connect 37 1 16 0;
#X connect 37 2 61 0;
#X connect 37 3 55 0;
#X connect 37 4 136 0;
#X connect 38 0 43 0;
#X connect 38 1 39 1;
#X connect 39 0 38 0;
#X connect 40 0 39 0;
#X connect 40 1 39 1;
#X connect 41 0 40 0;
#X connect 44 0 139 0;
#X connect 46 0 135 0;
#X connect 46 1 27 0;
#X connect 47 0 87 0;
#X connect 47 0 121 0;
#X connect 48 1 19 0;
#X connect 48 2 20 0;
#X connect 52 0 54 1;
#X connect 53 0 132 0;
#X connect 53 1 133 0;
#X connect 53 2 134 0;
#X connect 54 0 53 0;
#X connect 55 0 65 0;
#X connect 55 1 54 0;
#X connect 57 0 62 0;
#X connect 58 0 56 0;
#X connect 59 0 56 0;
#X connect 60 0 58 0;
#X connect 61 0 59 0;
#X connect 62 0 60 0;
#X connect 62 1 56 0;
#X connect 65 0 73 0;
#X connect 66 0 73 0;
#X connect 67 0 72 0;
#X connect 68 0 69 0;
#X connect 68 0 74 0;
#X connect 68 0 92 0;
#X connect 70 0 72 0;
#X connect 72 0 65 0;
#X connect 72 1 68 0;
#X connect 72 2 71 0;
#X connect 81 0 88 0;
#X connect 81 0 122 0;
#X connect 83 0 21 0;
#X connect 84 0 21 1;
#X connect 85 0 21 2;
#X connect 89 0 83 0;
#X connect 89 1 48 0;
#X connect 91 0 2 1;
#X connect 94 0 95 0;
#X connect 95 0 92 0;
#X connect 98 0 116 5;
#X connect 101 0 116 2;
#X connect 103 0 111 0;
#X connect 104 0 110 0;
#X connect 107 0 105 0;
#X connect 108 0 138 0;
#X connect 109 0 107 0;
#X connect 110 0 108 0;
#X connect 110 1 109 0;
#X connect 111 0 138 0;
#X connect 111 1 107 0;
#X connect 113 0 130 0;
#X connect 116 0 120 0;
#X connect 116 0 102 0;
#X connect 118 0 131 0;
#X connect 120 0 25 0;
#X connect 123 0 114 0;
#X connect 124 0 115 0;
#X connect 125 0 114 1;
#X connect 126 0 115 1;
#X connect 127 0 116 1;
#X connect 128 0 116 3;
#X connect 129 0 116 4;
#X connect 130 0 125 0;
#X connect 130 1 126 0;
#X connect 131 0 113 0;
#X connect 132 0 60 1;
#X connect 132 0 61 1;
#X connect 133 0 60 1;
#X connect 133 0 61 1;
#X connect 134 0 60 1;
#X connect 134 0 61 1;
#X connect 135 1 137 0;
#X connect 136 0 34 0;
#X connect 137 0 39 0;
#X connect 138 0 106 0;
#X connect 139 0 100 0;
#X connect 139 0 86 0;
#X connect 139 1 47 0;
#X connect 139 2 81 0;
#X connect 140 0 118 0;
#X connect 141 0 143 0;
#X connect 143 0 142 0;
#X coords 0 819 1 818 85 60 0;
