#N canvas 0 232 220 350 16;
#X obj 346 100 r $sujeito;
#X obj 319 164 route 0 1 2;
#X msg 254 468 vis 1;
#X obj 46 -18 r $inicia_experimento;
#X obj 319 130 0;
#X msg 272 490 vis 0;
#X obj 436 420 loadbang;
#X floatatom 200 806 5 0 0 0 - - -;
#X text 182 731 Sorteia intervalo;
#X floatatom 406 808 5 0 0 0 - - -;
#X text 386 731 Sorteia timbre;
#X obj 200 780 sorteia;
#X obj 406 781 sorteia;
#X floatatom 22 809 5 0 0 0 - - -;
#X text -1 729 Sorteia intervalo;
#X obj 22 781 sorteia;
#X obj 46 510 f;
#X obj 46 537 moses;
#X obj 46 454 t b b;
#X obj 83 510 + 1;
#X msg 79 484 0;
#X obj 46 389 t b b b;
#X obj 46 368 bng 15 250 50 0 empty empty empty 17 7 0 10 -262144 -1
-1;
#X obj 46 697 t b b b;
#X msg 889 194 1 0.3333 0.2 0.142857 0.1111 0.090909;
#X msg 936 223 500 1000 1500 2000 2500 3000;
#X msg 1032 641 300 500 600 1000;
#X msg 984 612 0.5 0.8 0.3 0.2;
#X msg 967 366 400 800 1200 1600 2000;
#X msg 920 338 1 0.88 0.77 0.68 0.6;
#X msg 999 488 1351 2040 2167 4068 5066 7666;
#X msg 952 461 0.2 0.9 0.9 1 0.5 0.5;
#X obj 889 166 t b b;
#X obj 920 312 t b b;
#X obj 952 434 t b b;
#X obj 984 584 t b b;
#X obj 1200 765 r $toca2;
#X obj 1200 794 t b f;
#X msg 113 453 10;
#X msg 214 591 vis 1;
#X obj -228 241 r $gravar;
#X obj -168 450 r $resp;
#X obj -195 476 f;
#X obj -195 603 pack f f f f;
#X obj 214 564 t b b;
#X obj 46 616 t b f;
#N canvas 644 354 584 329 questao 1;
#X obj 162 64 bng 30 250 50 0 $toca_1 $A A 8 15 0 25 -128992 -204800
-262144;
#X obj 234 64 bng 30 250 50 0 $toca_2 $B B 8 15 0 25 -128992 -204800
-262144;
#X obj 99 157 vradio 30 1 1 3 $resp $seletor empty 0 -8 0 10 -262144
-1 -1 0;
#X text 141 159 Não sei;
#X text 144 191 A;
#X text 144 221 B;
#X text 74 34 Toque nos botões para ouvir os sons;
#X text 70 126 Qual deles parece mais consonante?;
#X obj 77 278 bng 30 250 50 0 $gravar $prox empty 8 15 0 25 -204800
-128992 -1;
#N canvas 0 178 1425 588 toca 0;
#X obj 492 76 print TM;
#X obj 85 21 r $toca_1;
#X obj 335 25 r $toca_2;
#X obj 85 103 s $toca2;
#X obj 335 107 s $toca2;
#X obj 112 48 r $int1;
#X obj 492 47 r $timbre;
#X obj 362 52 r $int2;
#X msg 72 148 \; $A color 16;
#X obj 335 79 f;
#X obj 85 76 f;
#X obj 38 49 t b b;
#X obj 288 53 t b b;
#X msg 361 150 \; $B color 16;
#X obj 463 315 s pd-questao;
#X msg 474 269 msg 200 200 OI;
#X connect 1 0 11 0;
#X connect 2 0 12 0;
#X connect 5 0 10 1;
#X connect 6 0 0 0;
#X connect 7 0 9 1;
#X connect 9 0 4 0;
#X connect 10 0 3 0;
#X connect 11 0 8 0;
#X connect 11 1 10 0;
#X connect 12 0 13 0;
#X connect 12 1 9 0;
#X connect 15 0 14 0;
#X restore 483 31 pd toca;
#X floatatom 159 10 2 0 0 0 Questão #q -;
#X text 118 280 Próxima;
#X restore 1099 -10 pd questao;
#X obj 75 147 s pd-questao;
#X msg 75 120 vis 1;
#X obj 272 100 t b b;
#X obj 200 837 s $int2;
#X obj 22 841 s $int1;
#X obj 406 834 s $timbre;
#X obj -156 525 r $int1;
#X obj -117 550 r $int2;
#X obj -78 575 r $timbre;
#X obj 889 90 r $timbre;
#X obj 93 668 s $q;
#X msg 483 473 vis 0;
#X obj 483 499 s experimento.pd;
#X obj 999 515 s f;
#X obj 952 488 s a;
#X obj 1032 667 s f;
#X obj 984 638 s a;
#X obj 967 392 s f;
#X obj 920 364 s a;
#X obj 936 250 s f;
#X obj 889 221 s a;
#X obj 1200 822 tocaParciais;
#X msg 303 593 vis 0;
#X obj 303 619 s pd-questao;
#X text 993 731 Toca os intervalos no timbre sorteado;
#X obj 544 370 textfile;
#X obj -217 692 print conj;
#X obj -195 663 s conj;
#X obj 497 99 r conj;
#X msg -195 634 add \$1 \$2 \$3 \$4;
#X msg 378 328 write \$1;
#X msg 292 329 read \$1;
#X obj 380 302 l;
#X obj 292 300 l;
#X msg 319 194 list leigo.txt;
#X msg 354 222 list pouco.txt;
#X msg 390 249 list muito.txt;
#X obj 46 15 t b b b b;
#X obj 497 126 t b a;
#X obj 527 422 r $novo;
#X msg 667 468 \; pd dsp 1;
#X obj 436 445 t b b b;
#X msg -161 350 \; $A color 11 \; $B color 11 \; $seletor 0;
#X obj 93 642 + 1;
#X obj 1278 795 r f;
#X obj 1317 795 r a;
#N canvas 502 378 450 292 inicio 0;
#X obj 49 70 vradio 30 1 1 3 $sujeito empty empty 0 -8 0 10 -262144
-1 -1 0;
#X text 88 71 Leigo;
#X text 90 104 Possuo alguma experiência musical;
#X text 89 134 Sou profissional da música;
#X text 54 39 Em que grupo você se encaixa?;
#X obj 48 185 bng 30 250 50 0 $inicia_experimento empty empty 8 15
0 25 -4034 -128992 -1;
#X text 84 188 Iniciar experimento;
#X restore 1215 -10 pd inicio;
#N canvas 530 301 450 300 fim 0;
#X text 56 91 Novo experimento;
#X text 55 34 FIM;
#X obj 59 117 bng 30 250 50 0 $novo empty empty 8 15 0 25 -159808 -128992
-1;
#X restore 1216 25 pd fim;
#X obj 214 619 s pd-fim;
#X obj 254 514 s pd-inicio;
#X obj 504 526 s pd-fim;
#X text 271 74 Preparar o arquivo texto;
#X text 1056 119 Listas de frequencias e amplitudes;
#X obj -228 277 t b b b;
#X obj 1162 536 t b b;
#X obj 1210 619 s f;
#X obj 1162 590 s a;
#X obj 1207 334 t b b;
#X obj 1254 415 s f;
#X obj 1207 388 s a;
#X msg 1254 388 2368 4784 5553 7921 10103;
#X msg 1207 361 1 0.5 1 0.6 0.5;
#X text 1205 304 Tingshaw;
#X text 1225 535 Tritono;
#X text 1355 154 Harpsichord (32 parciais com decaimento de 0.75^n
amplitude);
#X obj 1523 208 t b b;
#X obj 1570 292 s f;
#X obj 1523 263 s a;
#X msg 1523 320 1 0.75 0.5625 0.421875 0.316406 0.237305 0.177979 0.133484
0.100113 0.0750847 0.0563135 0.0422351 0.0316764 0.0237573 0.0178179
0.0133635 0.0100226 0.00751695 0.00563771 0.00422828 0.00317121 0.00237841
0.00178381 0.00133786 0.00100339 0.000752543 0.000564408 0.000423306
0.000317479 0.000238109 0.000178582 0.000133937 0.142857 0.1111 0.090909
;
#X msg 1641 278 380 760 1140 1520 1900 2280 2660 3040 3420 3800 4180
4560 4940 5320 5700 6080 6460 6840 7220 7600 7980 8360 8740 9120 9500
9880 10260 10640 11020 11400 11780 12160;
#X obj 889 118 route 0 1 2 3 4 5;
#X msg 1210 593 440 622 880;
#X msg 1162 564 1 1 1;
#X obj 604 109 calculaDissonancia;
#X obj 660 767 tabread $sorteia_intervalo;
#X msg 200 754 5;
#X msg 406 754 3;
#X obj 593 676 moses 0;
#X obj 660 702 t b b;
#X obj 660 729 f;
#X obj 707 729 f;
#X msg 22 754 26;
#X obj 707 806 tabread $sorteia_intervalo;
#X obj 593 607 expr if ($f2 == $f3 \, -1 \, 0) \; $f1 % 5 \; int($f1
/ 5);
#X obj 731 551 f;
#X obj 870 550 f;
#X connect 0 0 4 1;
#X connect 1 0 81 0;
#X connect 1 1 82 0;
#X connect 1 2 83 0;
#X connect 2 0 96 0;
#X connect 3 0 84 0;
#X connect 4 0 1 0;
#X connect 5 0 96 0;
#X connect 6 0 88 0;
#X connect 9 0 52 0;
#X connect 11 0 7 0;
#X connect 12 0 9 0;
#X connect 13 0 130 0;
#X connect 15 0 13 0;
#X connect 16 0 17 0;
#X connect 16 0 19 0;
#X connect 17 0 45 0;
#X connect 17 1 44 0;
#X connect 18 0 16 0;
#X connect 19 0 16 1;
#X connect 20 0 16 1;
#X connect 21 0 18 0;
#X connect 21 1 20 0;
#X connect 21 2 38 0;
#X connect 22 0 21 0;
#X connect 23 0 128 0;
#X connect 23 1 122 0;
#X connect 23 2 123 0;
#X connect 24 0 67 0;
#X connect 25 0 66 0;
#X connect 26 0 62 0;
#X connect 27 0 63 0;
#X connect 28 0 64 0;
#X connect 29 0 65 0;
#X connect 30 0 60 0;
#X connect 31 0 61 0;
#X connect 32 0 24 0;
#X connect 32 1 25 0;
#X connect 33 0 29 0;
#X connect 33 1 28 0;
#X connect 34 0 31 0;
#X connect 34 1 30 0;
#X connect 35 0 27 0;
#X connect 35 1 26 0;
#X connect 36 0 37 0;
#X connect 37 0 68 0;
#X connect 37 1 68 1;
#X connect 38 0 17 1;
#X connect 39 0 95 0;
#X connect 40 0 100 0;
#X connect 41 0 42 1;
#X connect 42 0 43 0;
#X connect 43 0 73 0;
#X connect 43 0 76 0;
#X connect 44 0 39 0;
#X connect 44 1 69 0;
#X connect 45 0 23 0;
#X connect 45 1 90 0;
#X connect 48 0 47 0;
#X connect 49 0 5 0;
#X connect 49 1 4 0;
#X connect 53 0 43 1;
#X connect 54 0 43 2;
#X connect 55 0 43 3;
#X connect 56 0 117 0;
#X connect 58 0 59 0;
#X connect 58 0 97 0;
#X connect 69 0 70 0;
#X connect 75 0 85 0;
#X connect 76 0 74 0;
#X connect 77 0 72 0;
#X connect 78 0 72 0;
#X connect 79 0 77 0;
#X connect 80 0 78 0;
#X connect 81 0 79 1;
#X connect 81 0 80 1;
#X connect 82 0 79 1;
#X connect 82 0 80 1;
#X connect 83 0 79 1;
#X connect 83 0 80 1;
#X connect 84 0 21 0;
#X connect 84 1 48 0;
#X connect 84 2 80 0;
#X connect 84 3 49 0;
#X connect 85 0 79 0;
#X connect 85 1 72 0;
#X connect 86 0 88 0;
#X connect 88 0 2 0;
#X connect 88 1 58 0;
#X connect 88 2 87 0;
#X connect 90 0 57 0;
#X connect 91 0 68 2;
#X connect 92 0 68 3;
#X connect 100 0 18 0;
#X connect 100 1 42 0;
#X connect 100 2 89 0;
#X connect 101 0 119 0;
#X connect 101 1 118 0;
#X connect 104 0 108 0;
#X connect 104 1 107 0;
#X connect 107 0 105 0;
#X connect 108 0 106 0;
#X connect 112 0 115 0;
#X connect 112 1 116 0;
#X connect 115 0 114 0;
#X connect 116 0 113 0;
#X connect 117 0 32 0;
#X connect 117 1 33 0;
#X connect 117 2 34 0;
#X connect 117 3 35 0;
#X connect 117 4 101 0;
#X connect 117 5 104 0;
#X connect 117 6 112 0;
#X connect 118 0 102 0;
#X connect 119 0 103 0;
#X connect 121 0 51 0;
#X connect 122 0 11 0;
#X connect 123 0 12 0;
#X connect 124 0 122 0;
#X connect 124 1 125 0;
#X connect 125 0 126 0;
#X connect 125 1 127 0;
#X connect 126 0 121 0;
#X connect 127 0 129 0;
#X connect 128 0 15 0;
#X connect 129 0 50 0;
#X connect 130 0 124 0;
#X connect 130 1 126 1;
#X connect 130 1 131 0;
#X connect 130 2 127 1;
#X connect 130 2 132 0;
#X connect 131 0 130 1;
#X connect 132 0 130 2;
