#N canvas 65 223 278 625 16;
#X obj 346 100 r $sujeito;
#X obj 319 164 route 0 1 2;
#X msg 254 468 vis 1;
#X obj 46 -18 r $inicia_experimento;
#X obj 319 130 0;
#X msg 272 490 vis 0;
#X obj 436 420 loadbang;
#X obj 46 510 f;
#X obj 46 537 moses;
#X obj 46 454 t b b;
#X obj 83 510 + 1;
#X msg 79 484 0;
#X obj 46 389 t b b b;
#X obj 46 368 bng 15 250 50 0 empty empty empty 17 7 0 10 -262144 -1
-1;
#X msg 1410 195 1 0.3333 0.2 0.142857 0.1111 0.090909;
#X msg 1457 224 500 1000 1500 2000 2500 3000;
#X msg 1553 642 300 500 600 1000;
#X msg 1505 613 0.5 0.8 0.3 0.2;
#X msg 1488 367 400 800 1200 1600 2000;
#X msg 1441 339 1 0.88 0.77 0.68 0.6;
#X msg 1520 489 1351 2040 2167 4068 5066 7666;
#X msg 1473 462 0.2 0.9 0.9 1 0.5 0.5;
#X obj 1410 167 t b b;
#X obj 1441 313 t b b;
#X obj 1473 435 t b b;
#X obj 1505 585 t b b;
#X obj 1200 765 r $toca2;
#X obj 1200 794 t b f;
#X msg 214 587 vis 1;
#X obj -228 241 r $gravar;
#X obj -168 450 r $resp;
#X obj -195 476 f;
#X obj -195 603 pack f f f f;
#X obj 214 560 t b b;
#N canvas 736 355 584 329 questao 0;
#X obj 162 64 bng 30 250 50 0 $toca_1 $A A 8 15 0 25 -128992 -204800
-262144;
#X obj 234 64 bng 30 250 50 0 $toca_2 $B B 8 15 0 25 -128992 -204800
-262144;
#X obj 99 157 vradio 30 1 1 3 $resp $seletor empty 0 -8 0 10 -262144
-1 -1 0;
#X text 141 159 Não sei;
#X text 144 191 A;
#X text 144 221 B;
#X text 74 34 Toque nos botões para ouvir os sons;
#X text 70 126 Qual deles parece mais consonante?;
#X obj 77 278 bng 30 250 50 0 $gravar $prox empty 8 15 0 25 -204800
-128992 -1;
#N canvas 65 182 1375 588 toca 0;
#X obj 492 76 print TM;
#X obj 85 21 r $toca_1;
#X obj 335 25 r $toca_2;
#X obj 85 144 s $toca2;
#X obj 335 147 s $toca2;
#X obj 112 48 r $int1;
#X obj 492 47 r $timbre;
#X obj 362 52 r $int2;
#X msg 70 184 \; $A color 16;
#X obj 335 79 f;
#X obj 85 76 f;
#X obj 38 49 t b b;
#X obj 288 53 t b b;
#X msg 361 190 \; $B color 16;
#X obj 463 315 s pd-questao;
#X msg 474 269 msg 200 200 OI;
#X obj 85 113 expr 1+$f1/100;
#X obj 335 113 expr 1+$f1/100;
#X connect 1 0 11 0;
#X connect 2 0 12 0;
#X connect 5 0 10 1;
#X connect 6 0 0 0;
#X connect 7 0 9 1;
#X connect 9 0 17 0;
#X connect 10 0 16 0;
#X connect 11 0 8 0;
#X connect 11 1 10 0;
#X connect 12 0 13 0;
#X connect 12 1 9 0;
#X connect 15 0 14 0;
#X connect 16 0 3 0;
#X connect 17 0 4 0;
#X restore 483 31 pd toca;
#X floatatom 159 10 2 0 0 0 Questão #q -;
#X text 118 280 Próxima;
#X restore 1099 -10 pd questao;
#X obj 72 147 s pd-questao;
#X msg 72 120 vis 1;
#X obj 272 100 t b b;
#X obj 160 1286 s $int2;
#X obj 79 1255 s $int1;
#X obj -156 525 r $int1;
#X obj -117 550 r $int2;
#X obj -78 575 r $timbre;
#X obj 1410 91 r $timbre;
#X obj 93 668 s $q;
#X msg 483 473 vis 0;
#X obj 483 499 s experimento.pd;
#X obj 1520 516 s f;
#X obj 1473 489 s a;
#X obj 1553 668 s f;
#X obj 1505 639 s a;
#X obj 1488 393 s f;
#X obj 1441 365 s a;
#X obj 1457 251 s f;
#X obj 1410 222 s a;
#X obj 1200 822 tocaParciais;
#X msg 303 589 vis 0;
#X obj 303 615 s pd-questao;
#X text 993 731 Toca os intervalos no timbre sorteado;
#X obj 544 370 textfile;
#X obj -217 692 print conj;
#X obj -195 663 s conj;
#X obj 497 99 r conj;
#X msg -195 634 add \$1 \$2 \$3 \$4;
#X msg 378 328 write \$1;
#X msg 292 329 read \$1;
#X obj 380 302 l;
#X obj 292 300 l;
#X msg 319 194 list leigo.txt;
#X msg 354 222 list pouco.txt;
#X msg 390 249 list muito.txt;
#X obj 497 126 t b a;
#X obj 527 422 r $novo;
#X msg 667 468 \; pd dsp 1;
#X obj 436 445 t b b b;
#X msg -161 350 \; $A color 11 \; $B color 11 \; $seletor 0;
#X obj 93 642 + 1;
#X obj 1278 795 r f;
#X obj 1317 795 r a;
#N canvas 466 525 450 292 inicio 0;
#X obj 49 70 vradio 30 1 1 3 $sujeito empty empty 0 -8 0 10 -262144
-1 -1 1;
#X text 88 71 Leigo;
#X text 90 104 Possuo alguma experiência musical;
#X text 89 134 Sou profissional da música;
#X text 54 39 Em que grupo você se encaixa?;
#X obj 48 185 bng 30 250 50 0 $inicia_experimento empty empty 8 15
0 25 -4034 -128992 -1;
#X text 84 188 Iniciar experimento;
#X restore 1215 -10 pd inicio;
#N canvas 518 353 450 300 fim 0;
#X text 56 91 Novo experimento;
#X text 55 34 FIM;
#X obj 59 117 bng 30 250 50 0 $novo empty empty 8 15 0 25 -159808 -128992
-1;
#X restore 1216 25 pd fim;
#X obj 214 615 s pd-fim;
#X obj 254 514 s pd-inicio;
#X obj 504 526 s pd-fim;
#X text 271 74 Preparar o arquivo texto;
#X text 1577 120 Listas de frequencias e amplitudes;
#X obj -228 277 t b b b;
#X obj 1410 119 route 0 1 2 3 4 5;
#X obj 604 109 calculaDissonancia;
#X obj 113 1216 tabread $sorteia_intervalo;
#X obj 46 1125 moses 0;
#X obj 113 1151 t b b;
#X obj 113 1178 f;
#X obj 160 1178 f;
#X obj 160 1255 tabread $sorteia_intervalo;
#X obj 46 1063 f;
#X obj 149 1062 f;
#X obj 46 1092 expr if ($f1 == $f2 \, -1 \, 0) \;;
#X obj 797 235 list-permute;
#X obj 797 262 list;
#X obj 797 290 s ordem_qts;
#X obj 46 15 t b b b b b;
#X text 799 130 Sorteia a ordem das questões;
#X obj 182 853 list split 1;
#X obj 182 824 list append;
#X obj 182 793 t b l;
#X obj 182 764 r ordem_qts;
#X obj 46 957 f;
#X obj 46 718 moses 1;
#X obj 113 771 t b b;
#X text 34 695 Se for primeira \, pega valor já definido;
#X obj 182 881 s par;
#X obj 73 931 r par;
#X text 139 920 Esse bloco pega o par aleatório da lista carrega os
mínimos correspondentes na questão. Houve um tratamento na primeira
questão para que nenhum par fosse perdido.;
#X obj 46 616 t f f;
#X text 330 996 Sorteia timbre;
#X floatatom 336 1033 5 0 0 0 - - -;
#X obj 336 1060 s $timbre;
#X obj 46 984 expr $f1 % 5 \; int(int($f1%20) / 5) \; int($f1 / 20)
;
#X text 342 1092 Envia somente os intervalos diferentes;
#X text 1415 60 REMOVER;
#X msg 797 159 1 2 3 4 7 8 9 13 14 19 21 22 23 24 27 28 29 33 34 39
41 42 43 44 47 48 49 53 54 59;
#X msg 113 453 30;
#X connect 0 0 4 1;
#X connect 1 0 68 0;
#X connect 1 1 69 0;
#X connect 1 2 70 0;
#X connect 2 0 82 0;
#X connect 3 0 101 0;
#X connect 4 0 1 0;
#X connect 5 0 82 0;
#X connect 6 0 74 0;
#X connect 7 0 8 0;
#X connect 7 0 10 0;
#X connect 8 0 114 0;
#X connect 8 1 33 0;
#X connect 9 0 7 0;
#X connect 10 0 7 1;
#X connect 11 0 7 1;
#X connect 12 0 9 0;
#X connect 12 1 11 0;
#X connect 12 2 122 0;
#X connect 13 0 12 0;
#X connect 14 0 54 0;
#X connect 15 0 53 0;
#X connect 16 0 49 0;
#X connect 17 0 50 0;
#X connect 18 0 51 0;
#X connect 19 0 52 0;
#X connect 20 0 47 0;
#X connect 21 0 48 0;
#X connect 22 0 14 0;
#X connect 22 1 15 0;
#X connect 23 0 19 0;
#X connect 23 1 18 0;
#X connect 24 0 21 0;
#X connect 24 1 20 0;
#X connect 25 0 17 0;
#X connect 25 1 16 0;
#X connect 26 0 27 0;
#X connect 27 0 55 0;
#X connect 27 1 55 1;
#X connect 28 0 81 0;
#X connect 29 0 86 0;
#X connect 30 0 31 1;
#X connect 31 0 32 0;
#X connect 32 0 60 0;
#X connect 32 0 63 0;
#X connect 33 0 28 0;
#X connect 33 1 56 0;
#X connect 36 0 35 0;
#X connect 37 0 5 0;
#X connect 37 1 4 0;
#X connect 40 0 32 1;
#X connect 41 0 32 2;
#X connect 42 0 32 3;
#X connect 43 0 87 0;
#X connect 45 0 46 0;
#X connect 45 0 83 0;
#X connect 56 0 57 0;
#X connect 62 0 71 0;
#X connect 63 0 61 0;
#X connect 64 0 59 0;
#X connect 65 0 59 0;
#X connect 66 0 64 0;
#X connect 67 0 65 0;
#X connect 68 0 66 1;
#X connect 68 0 67 1;
#X connect 69 0 66 1;
#X connect 69 0 67 1;
#X connect 70 0 66 1;
#X connect 70 0 67 1;
#X connect 71 0 66 0;
#X connect 71 1 59 0;
#X connect 72 0 74 0;
#X connect 74 0 2 0;
#X connect 74 1 45 0;
#X connect 74 2 73 0;
#X connect 76 0 44 0;
#X connect 77 0 55 3;
#X connect 78 0 55 4;
#X connect 86 0 9 0;
#X connect 86 1 31 0;
#X connect 86 2 75 0;
#X connect 87 0 22 0;
#X connect 87 1 23 0;
#X connect 87 2 24 0;
#X connect 87 3 25 0;
#X connect 89 0 39 0;
#X connect 90 0 109 0;
#X connect 90 1 91 0;
#X connect 91 0 92 0;
#X connect 91 1 93 0;
#X connect 92 0 89 0;
#X connect 93 0 94 0;
#X connect 94 0 38 0;
#X connect 95 0 97 0;
#X connect 95 0 92 1;
#X connect 96 0 97 1;
#X connect 96 0 93 1;
#X connect 97 0 90 0;
#X connect 98 0 99 0;
#X connect 99 0 100 0;
#X connect 101 0 12 0;
#X connect 101 1 36 0;
#X connect 101 2 67 0;
#X connect 101 3 37 0;
#X connect 101 4 121 0;
#X connect 103 0 111 0;
#X connect 103 1 104 1;
#X connect 104 0 103 0;
#X connect 105 0 104 0;
#X connect 105 1 104 1;
#X connect 106 0 105 0;
#X connect 107 0 118 0;
#X connect 108 0 107 0;
#X connect 108 1 109 0;
#X connect 109 0 107 0;
#X connect 109 1 104 0;
#X connect 112 0 107 1;
#X connect 114 0 108 0;
#X connect 114 1 76 0;
#X connect 116 0 117 0;
#X connect 118 0 95 0;
#X connect 118 1 96 0;
#X connect 118 2 116 0;
#X connect 121 0 98 0;
#X connect 122 0 8 1;
