#N canvas 76 97 362 819 16;
#X obj 46 -46 r $inicia_experimento;
#X obj 46 482 f;
#X obj 46 519 moses;
#X obj 46 426 t b b;
#X obj 83 482 + 1;
#X msg 79 456 0;
#X obj 46 361 t b b b;
#X obj 46 340 bng 15 250 50 0 empty empty empty 17 7 0 10 -262144 -1
-1;
#X obj 1421 242 r $toca2;
#X msg 214 569 vis 1;
#X obj -228 213 r $gravar;
#X obj -168 422 r $resp;
#X obj -195 448 f;
#X obj -195 575 pack f f f f;
#X obj 214 542 t b b;
#N canvas 700 403 584 329 questao 0;
#X obj 162 64 bng 30 250 50 0 $toca_1 $A A 8 15 0 25 -128992 -204800
-262144;
#X obj 234 64 bng 30 250 50 0 $toca_2 $B B 8 15 0 25 -128992 -204800
-262144;
#X obj 99 157 vradio 30 1 1 3 $resp $seletor empty 0 -8 0 10 -262144
-1 -1 0;
#X text 141 159 Não sei;
#X text 144 191 A;
#X text 144 221 B;
#X text 74 34 Toque nos botões para ouvir os sons;
#X text 70 126 Qual deles parece mais consonante?;
#X obj 77 278 bng 30 250 50 0 $gravar $prox empty 8 15 0 25 -204800
-128992 -1;
#N canvas 65 190 1375 588 toca 0;
#X obj 85 21 r $toca_1;
#X obj 335 25 r $toca_2;
#X obj 85 144 s $toca2;
#X obj 335 147 s $toca2;
#X obj 492 47 r $timbre;
#X msg 70 184 \; $A color 16;
#X obj 335 79 f;
#X obj 85 76 f;
#X obj 38 49 t b b;
#X obj 288 53 t b b;
#X msg 361 190 \; $B color 16;
#X obj 463 315 s pd-questao;
#X msg 474 269 msg 200 200 OI;
#X obj 362 52 r $timbre2;
#X obj 112 48 r $timbre1;
#X connect 0 0 8 0;
#X connect 1 0 9 0;
#X connect 6 0 3 0;
#X connect 7 0 2 0;
#X connect 8 0 5 0;
#X connect 8 1 7 0;
#X connect 9 0 10 0;
#X connect 9 1 6 0;
#X connect 12 0 11 0;
#X connect 13 0 6 1;
#X connect 14 0 7 1;
#X restore 483 31 pd toca;
#X floatatom 159 10 2 0 0 0 Questão #q -;
#X text 118 280 Próxima;
#X restore 1410 -55 pd questao;
#X obj 72 119 s pd-questao;
#X msg 72 92 vis 1;
#X obj 157 1383 s $int2;
#X obj 12 1254 s $int1;
#X obj -156 497 r $int1;
#X obj -117 522 r $int2;
#X obj -78 547 r $timbre;
#X obj 1858 355 r $timbre;
#X obj 93 650 s $q;
#X obj 1886 440 s f;
#X obj 1915 415 s a;
#X obj 1421 412 tocaParciais;
#X msg 303 571 vis 0;
#X obj 303 597 s pd-questao;
#X text 1422 327 Toca os intervalos no timbre sorteado;
#X obj -217 664 print conj;
#X obj -195 635 s conj;
#X msg -195 606 add \$1 \$2 \$3 \$4;
#X msg -161 322 \; $A color 11 \; $B color 11 \; $seletor 0;
#X obj 93 624 + 1;
#X obj 1499 385 r f;
#X obj 1538 385 r a;
#N canvas 430 573 450 292 inicio 1;
#X obj 49 70 vradio 30 1 1 3 $sujeito empty empty 0 -8 0 10 -262144
-1 -1 0;
#X text 88 71 Leigo;
#X text 90 104 Possuo alguma experiência musical;
#X text 89 134 Sou profissional da música;
#X text 54 39 Em que grupo você se encaixa?;
#X obj 48 185 bng 30 250 50 0 $inicia_experimento empty empty 8 15
0 25 -4034 -128992 -1;
#X text 84 188 Iniciar experimento;
#X restore 1410 -83 pd inicio;
#N canvas 515 357 450 300 fim 1;
#X text 56 91 Novo experimento;
#X text 55 34 FIM;
#X obj 59 117 bng 30 250 50 0 $novo empty empty 8 15 0 25 -159808 -128992
-1;
#X restore 1410 -27 pd fim;
#X obj 214 597 s pd-fim;
#X obj -228 249 t b b b;
#X obj 730 98 list-permute;
#X obj 730 125 list;
#X obj 730 153 s ordem_qts;
#X obj 46 -13 t b b b b b;
#X obj 182 835 list split 1;
#X obj 182 806 list append;
#X obj 182 775 t b l;
#X obj 182 746 r ordem_qts;
#X obj 46 939 f;
#X obj 46 700 moses 1;
#X obj 113 753 t b b;
#X text 34 677 Se for primeira \, pega valor já definido;
#X obj 182 863 s par;
#X obj 73 913 r par;
#X text 139 902 Esse bloco pega o par aleatório da lista carrega os
mínimos correspondentes na questão. Houve um tratamento na primeira
questão para que nenhum par fosse perdido.;
#X obj 46 598 t f f;
#X floatatom 336 1015 5 0 0 0 - - -;
#X text 342 1074 Envia somente os intervalos diferentes;
#X msg 113 425 30;
#X obj 1858 388 timbre;
#X text 1856 326 Recupera o timbre;
#X text 1409 -111 Patchs para usuário;
#X obj 215 13 cnv 15 500 350 empty empty empty 60 60 0 14 -232576 -45076
0;
#X obj 308 36 r $sujeito;
#X obj 281 100 route 0 1 2;
#X obj 281 66 0;
#X obj 234 36 t b b;
#X obj 506 306 textfile;
#X obj 459 35 r conj;
#X msg 340 264 write \$1;
#X msg 254 265 read \$1;
#X obj 342 238 l;
#X obj 254 236 l;
#X msg 281 130 list leigo.txt;
#X msg 316 158 list pouco.txt;
#X msg 352 185 list muito.txt;
#X obj 459 62 t b a;
#X text 232 13 Preparar o arquivo texto;
#X obj 215 333 cnv 15 500 200 empty empty empty 20 12 0 14 -203904
-16662 0;
#X msg 234 410 vis 1;
#X msg 252 432 vis 0;
#X obj 346 362 loadbang;
#X msg 379 415 vis 0;
#X obj 379 441 s experimento.pd;
#X obj 437 364 r $novo;
#X msg 548 410 \; pd dsp 1;
#X obj 346 387 t b b b;
#X obj 234 456 s pd-inicio;
#X obj 401 465 s pd-fim;
#X text 237 336 Coordenar a apresentação dos patchs;
#N canvas 0 0 450 300 (subpatch) 0;
#X array timbre1X 5 float 3;
#A 0 1.21419 1.18921 1 1 1;
#X array timbre1Y 5 float 3;
#A 0 1.71713 1.40444 1 1 1;
#X coords 0 2 5 1 200 140 1 0 0;
#X restore 1553 824 graph;
#N canvas 0 0 450 300 (subpatch) 0;
#X array timbre2X 5 float 3;
#A 0 1.41421 1.29235 1.15669 1.26576 1.26576;
#X array timbre2Y 5 float 3;
#A 0 1.64718 1.64718 1.64718 1.61328 1.64718;
#X coords 0 2 5 1 200 140 1 0 0;
#X restore 1550 1017 graph;
#N canvas 0 0 450 300 (subpatch) 0;
#X array timbre3X 5 float 3;
#A 0 1.32869 1.24833 1.23971 1.38511 1.37554;
#X array timbre3Y 5 float 3;
#A 0 1.65864 1.49485 1.65864 1.49485 1.65864;
#X coords 0 2 5 1 200 140 1 0 0;
#X restore 1548 1208 graph;
#N canvas 0 0 450 300 (subpatch) 0;
#X array timbre0X 5 float 3;
#A 0 1.32868 1.24833 1.32868 1.37554 1.37554;
#X array timbre0Y 5 float 3;
#A 0 1.65864 1.65864 1.70527 1.71713 1.68179;
#X coords 0 2 5 1 200 140 1 0 0;
#X restore 1554 631 graph;
#X text 1557 475 Referência: Timbre 0 - Harpsichord Timbre 1 - Tritone
Timbre 2 - Tingshaw Timbre 3 - Harmônico 6;
#X obj 46 1215 tabread;
#X obj 157 1352 tabread;
#X obj 216 1239 bng 15 250 50 0 empty empty empty 17 7 0 10 -4034 -1
-1;
#X obj 216 1259 f \$0;
#X obj 335 1103 bng 15 250 50 0 empty empty empty 17 7 0 10 -4034 -1
-1;
#X obj 335 1123 f \$0;
#X text 783 991 Dois primeiros outlets: acorde Dois ultimos: timbres
;
#X floatatom 448 1015 5 0 0 0 - - -;
#X text 330 978 Sorteia timbres;
#X obj 454 1116 t b f b f;
#X obj 1421 393 bng 15 250 50 0 empty empty empty 17 7 0 10 -262144
-1 -1;
#X obj 1450 439 r $int1;
#X obj 1479 468 r $int2;
#X obj 336 1042 s $timbre1;
#X obj 448 1042 s $timbre2;
#X obj 446 1273 print Acorde;
#X obj 546 1231 print Timbre1;
#X obj 693 1232 print Timbre2;
#X obj 1421 278 t b f;
#X msg 730 10 10 20 30 11 21 31 12 22 32 13 23 33 14 24 34 100 120
130 101 121 131 102 122 132 103 123 133 104 124 134 200 210 230 201
211 231 202 212 232 203 213 233 204 214 234 300 310 320 301 311 321
302 312 322 303 313 323 304 314 324;
#X text 732 -19 Sorteia a ordem das questões(timbre-timbre-acorde)
;
#X obj 46 966 expr $f1 % 100 \; $f1 % 100 \; int($f1 / 100) \; int(($f1%100)
/ 10) \;;
#X obj 328 1163 pack f f;
#X obj 216 1286 pack f f;
#X msg 328 1194 set timbre\$1X;
#X msg 216 1314 set timbre\$1Y;
#X connect 0 0 45 0;
#X connect 1 0 2 0;
#X connect 1 0 4 0;
#X connect 2 0 57 0;
#X connect 2 1 14 0;
#X connect 3 0 1 0;
#X connect 4 0 1 1;
#X connect 5 0 1 1;
#X connect 6 0 3 0;
#X connect 6 1 5 0;
#X connect 6 2 60 0;
#X connect 7 0 6 0;
#X connect 8 0 115 0;
#X connect 9 0 40 0;
#X connect 10 0 41 0;
#X connect 11 0 12 1;
#X connect 12 0 13 0;
#X connect 13 0 31 0;
#X connect 13 0 33 0;
#X connect 14 0 9 0;
#X connect 14 1 28 0;
#X connect 17 0 16 0;
#X connect 20 0 13 1;
#X connect 21 0 13 2;
#X connect 22 0 13 3;
#X connect 23 0 61 0;
#X connect 28 0 29 0;
#X connect 33 0 32 0;
#X connect 35 0 24 0;
#X connect 36 0 27 3;
#X connect 37 0 27 4;
#X connect 41 0 3 0;
#X connect 41 1 12 0;
#X connect 41 2 34 0;
#X connect 42 0 43 0;
#X connect 43 0 44 0;
#X connect 45 0 6 0;
#X connect 45 1 17 0;
#X connect 45 2 74 0;
#X connect 45 3 68 0;
#X connect 45 4 116 0;
#X connect 46 0 54 0;
#X connect 46 1 47 1;
#X connect 47 0 46 0;
#X connect 48 0 47 0;
#X connect 48 1 47 1;
#X connect 49 0 48 0;
#X connect 50 0 118 0;
#X connect 51 0 50 0;
#X connect 51 1 52 0;
#X connect 52 0 50 0;
#X connect 52 1 47 0;
#X connect 55 0 50 1;
#X connect 57 0 51 0;
#X connect 57 1 35 0;
#X connect 58 0 106 0;
#X connect 58 0 110 0;
#X connect 58 0 113 0;
#X connect 60 0 2 1;
#X connect 61 1 25 0;
#X connect 61 2 26 0;
#X connect 65 0 67 1;
#X connect 66 0 75 0;
#X connect 66 1 76 0;
#X connect 66 2 77 0;
#X connect 67 0 66 0;
#X connect 68 0 81 0;
#X connect 68 1 67 0;
#X connect 70 0 78 0;
#X connect 71 0 69 0;
#X connect 72 0 69 0;
#X connect 73 0 71 0;
#X connect 74 0 72 0;
#X connect 75 0 73 1;
#X connect 75 0 74 1;
#X connect 76 0 73 1;
#X connect 76 0 74 1;
#X connect 77 0 73 1;
#X connect 77 0 74 1;
#X connect 78 0 73 0;
#X connect 78 1 69 0;
#X connect 81 0 89 0;
#X connect 82 0 89 0;
#X connect 83 0 88 0;
#X connect 84 0 85 0;
#X connect 84 0 90 0;
#X connect 86 0 88 0;
#X connect 88 0 81 0;
#X connect 88 1 84 0;
#X connect 88 2 87 0;
#X connect 97 0 19 0;
#X connect 98 0 18 0;
#X connect 99 0 100 0;
#X connect 100 0 120 0;
#X connect 101 0 102 0;
#X connect 102 0 119 0;
#X connect 104 0 111 0;
#X connect 104 0 114 0;
#X connect 106 1 119 1;
#X connect 106 1 121 0;
#X connect 106 3 120 1;
#X connect 106 3 122 0;
#X connect 106 3 112 0;
#X connect 107 0 27 0;
#X connect 108 0 27 1;
#X connect 109 0 27 2;
#X connect 115 0 107 0;
#X connect 115 1 61 0;
#X connect 116 0 42 0;
#X connect 118 0 97 0;
#X connect 118 1 98 0;
#X connect 118 2 58 0;
#X connect 118 3 104 0;
#X connect 119 0 121 0;
#X connect 120 0 122 0;
#X connect 121 0 97 0;
#X connect 122 0 98 0;
#X coords 0 819 1 818 85 60 0;
