#N canvas 206 540 493 300 10;
#X obj 75 179 throw~ outL;
#X obj 75 121 osc~;
#X obj 75 -7 r freq\$1;
#X obj 252 -6 r amp\$1;
#X floatatom 75 64 5 0 0 0 - - -;
#X floatatom 252 56 5 0 0 0 - - -;
#X obj 75 15 expr if ($f1 > 20000 \, 0 \, $f1) \; if ($f1 > 20000 \,
0 \, $f2);
#X text 293 133 Rampa para variação de amplitude;
#X text 263 21 Filtro de frequências acima de 20KHz;
#X obj 252 132 vline~;
#X obj 252 86 pack f f;
#X obj 297 65 r rampaDelay;
#X obj 74 149 *~;
#X msg 252 111 \$1 \$2;
#X connect 1 0 12 0;
#X connect 2 0 6 0;
#X connect 3 0 6 1;
#X connect 4 0 1 0;
#X connect 5 0 10 0;
#X connect 6 0 4 0;
#X connect 6 1 5 0;
#X connect 9 0 12 1;
#X connect 10 0 13 0;
#X connect 11 0 10 1;
#X connect 12 0 0 0;
#X connect 13 0 9 0;
