#N canvas 218 524 450 300 10;
#X obj 106 130 throw~ outL;
#X obj 106 72 osc~;
#X obj 106 -8 r freq\$1;
#X obj 172 -6 r amp\$1;
#X floatatom 106 50 5 0 0 0 - - -;
#X floatatom 172 51 5 0 0 0 - - -;
#X obj 105 100 *~ 1;
#X obj 75 15 expr if ($f1 > 20000 \, 0 \, $f1) \; if ($f1 > 20000 \,
0 \, $f2);
#X obj 195 101 line;
#X msg 195 80 \$1 300;
#X connect 1 0 6 0;
#X connect 2 0 7 0;
#X connect 3 0 7 1;
#X connect 4 0 1 0;
#X connect 5 0 9 0;
#X connect 6 0 0 0;
#X connect 7 0 4 0;
#X connect 7 1 5 0;
#X connect 8 0 6 1;
#X connect 9 0 8 0;
