#N canvas 26 633 450 300 10;
#X obj 106 130 throw~ outL;
#X obj 193 130 throw~ outR;
#X obj 106 28 inlet;
#X obj 147 28 inlet;
#X obj 106 72 osc~;
#X obj 191 29 inlet;
#X obj 191 51 t 0 0;
#X connect 2 0 4 0;
#X connect 3 0 4 1;
#X connect 4 0 0 0;
#X connect 4 0 1 0;
#X connect 5 0 6 0;
#X connect 6 0 4 0;
#X connect 6 1 4 1;
