#N canvas 582 117 450 300 10;
#X obj 146 30 f;
#X obj 146 54 moses;
#X msg 163 7 1;
#X obj 252 38 f;
#X obj 283 38 + 1;
#X msg 267 1 0;
#X obj 146 -26 t b b;
#X text 256 57 Define o indice;
#X obj 146 -52 until;
#X obj 358 30 t b b;
#X obj 180 30 * 1.00696;
#X msg 197 -117 2.47;
#X obj 146 -161 inlet bang;
#X obj 358 74 outlet end;
#X obj 146 74 outlet value;
#X obj 252 73 outlet index;
#X obj 146 -140 t b b b b;
#X text 239 -117 Intervalo de freq;
#X connect 0 0 1 0;
#X connect 0 0 10 0;
#X connect 1 0 14 0;
#X connect 1 1 9 0;
#X connect 2 0 0 1;
#X connect 3 0 4 0;
#X connect 3 0 15 0;
#X connect 4 0 3 1;
#X connect 5 0 3 1;
#X connect 6 0 0 0;
#X connect 6 1 3 0;
#X connect 8 0 6 0;
#X connect 9 0 13 0;
#X connect 9 1 8 1;
#X connect 10 0 0 1;
#X connect 11 0 1 1;
#X connect 12 0 16 0;
#X connect 16 0 8 0;
#X connect 16 1 2 0;
#X connect 16 2 5 0;
#X connect 16 3 11 0;
