#N canvas 0 106 450 300 10;
#X floatatom 78 196 0 0 0 0 - - -;
#X obj 78 124 timer;
#X msg 78 149 seed \$1;
#X obj 78 174 random;
#X obj 59 78 inlet;
#X obj 59 100 t b b f;
#X obj 78 217 outlet;
#X connect 0 0 6 0;
#X connect 1 0 2 0;
#X connect 2 0 3 0;
#X connect 3 0 0 0;
#X connect 4 0 5 0;
#X connect 5 0 3 0;
#X connect 5 1 1 0;
#X connect 5 2 3 1;
