#N canvas 65 95 1375 807 10;
#X obj -22800 -8248 vradio 30 1 0 5 $timbre empty empty 0 -8 0 10 -262144
-1 -1 0;
#X text -22800 -8276 Escolha o timbre;
#X text -22755 -8244 Harpsichord (harmônico);
#X text -22754 -8213 Tritono (inharmônico com espaçamento igual)
;
#X text -22753 -8181 Tingshaw (inharmônico natural);
#X obj -22796 -8084 r $timbre;
#X text -22754 -8151 Timbre harmônico Sethares;
#X obj -22796 -8063 timbre;
#X obj -22626 -8103 t b b;
#X obj -22540 -8057 tabread \$0-ordemX;
#X obj -22651 -8025 tocaParciais;
#X obj -22674 -8058 bng 15 250 50 0 empty empty empty 17 7 0 10 -262144
-1 -1;
#X obj -22763 -8041 s $amp;
#X obj -22780 -8022 s $freq;
#X obj -22796 -8002 s $init;
#X obj -22406 -8058 r $amp;
#X obj -22410 -8075 r $freq;
#X obj -22655 -8058 tabread \$0-ordemY;
#N canvas 0 0 450 300 (subpatch) 0;
#X array \$0-ordemY 5 float 3;
#A 0 103 13 57 44 83;
#X array \$0-ordemX 5 float 3;
#A 0 26 26 26 26 26;
#X coords 0 131 5 0 200 140 1 0 0;
#X restore -23035 -8252 graph;
#X msg -22653 -8096 76;
#X msg -22541 -8078 32;
#X obj -22628 -8124 bng 15 250 50 0 empty empty empty 17 7 0 10 -262144
-1 -1;
#X connect 5 0 7 0;
#X connect 7 0 14 0;
#X connect 7 1 13 0;
#X connect 7 2 12 0;
#X connect 8 0 19 0;
#X connect 8 1 20 0;
#X connect 9 0 10 2;
#X connect 11 0 10 0;
#X connect 15 0 10 4;
#X connect 16 0 10 3;
#X connect 17 0 10 1;
#X connect 19 0 10 1;
#X connect 20 0 10 2;
#X connect 21 0 8 0;
