#N canvas 184 288 887 492 10;
#X obj -22848 -8331 vradio 30 1 0 5 \$0-criaAcordes empty empty 0 -8
0 10 -262144 -1 -1 3;
#X text -22803 -8327 Harpsichord (harmônico);
#X text -22802 -8296 Tritono (inharmônico com espaçamento igual)
;
#X text -22801 -8264 Tingshaw (inharmônico natural);
#X text -22802 -8234 Timbre harmônico Sethares;
#X obj -22626 -8003 hradio 18 1 0 20 chord_num empty empty 0 -8 0 10
-262144 -1 -1 13;
#N canvas 65 53 1375 847 interno 0;
#X obj -22395 -8256 r $timbre;
#X obj -22395 -8235 timbre;
#X obj -22362 -8213 s $amp;
#X obj -22379 -8194 s $freq;
#X obj -22395 -8174 s $init;
#X text -22206 -8260 Tocar os acordes encontrados: Ler de um arquivo
os pares de acordo com o timbre;
#X obj -22142 -8035 textfile;
#X msg -22162 -8097 rewind;
#X msg -22097 -8013 stop;
#X obj -22216 -8038 bng 15 250 50 0 empty empty empty 17 7 0 10 -262144
-1 -1;
#X obj -22216 -8064 metro 100;
#X obj -21903 -8037 textfile;
#X msg -21923 -8099 rewind;
#X msg -21858 -8015 stop;
#X obj -21979 -8043 bng 15 250 50 0 empty empty empty 17 7 0 10 -262144
-1 -1;
#X obj -21979 -8068 metro 100;
#X obj -22142 -7973 tabwrite \$0-ordemX;
#X obj -21903 -7975 tabwrite \$0-ordemY;
#X obj -21639 -8291 loadbang;
#X msg -21639 -8240 \; pd dsp 1;
#X msg -21612 -8197 const 0;
#X obj -21612 -8159 s \$0-ordemX;
#X obj -21639 -8270 t b b;
#X text -21543 -8200 Inicializa os vetores de intervalos;
#X text -21565 -8235 Liga o DSP;
#X obj -21612 -8131 s \$0-ordemY;
#X text -22320 -7923 Selecionar o timbre para criar a lista de acordes
;
#X text -22313 -7906 Rodar o comando no shell;
#X text -22306 -7888 Recarregar os pares no vetor;
#X obj -22336 -7943 r \$0-criaAcordes;
#X obj -22336 -7862 route 0 1 2 3 4;
#X text -22137 -7790 Calcular todos os timbres e acrescentar o arquivo
de cada um sem precisar pedir para o python o tempo todo;
#X obj -22319 -7718 s type;
#X msg -22142 -8129 read pyDiss/\$1/rNotes.txt;
#X obj -22181 -8234 r type;
#X msg -21903 -8131 read pyDiss/\$1/sNotes.txt;
#X obj -22273 -8088 print;
#X obj -21942 -8163 t b b a;
#X obj -22181 -8162 t b b a;
#X msg -22113 -8161 symbol algo;
#X msg -22377 -7823 symbol harpsichord;
#X msg -22319 -7804 symbol tritone;
#X msg -22285 -7785 symbol tingshaw;
#X msg -22244 -7764 symbol harm6;
#X obj -22181 -8214 t a a b;
#X obj -21551 -7792 tabread \$0-ordemX;
#X obj -21692 -7747 tocaParciais;
#X obj -21692 -7792 bng 15 250 50 0 empty empty empty 17 7 0 10 -262144
-1 -1;
#X obj -21433 -7774 r $amp;
#X obj -21433 -7793 r $freq;
#X obj -21673 -7793 tabread \$0-ordemY;
#X obj -21692 -7847 t b f f;
#X obj -21692 -7871 r chord_num;
#X connect 0 0 1 0;
#X connect 1 0 4 0;
#X connect 1 1 3 0;
#X connect 1 2 2 0;
#X connect 6 0 16 0;
#X connect 6 1 8 0;
#X connect 7 0 6 0;
#X connect 8 0 10 0;
#X connect 10 0 6 0;
#X connect 10 0 9 0;
#X connect 11 0 17 0;
#X connect 11 1 13 0;
#X connect 12 0 11 0;
#X connect 13 0 15 0;
#X connect 15 0 11 0;
#X connect 15 0 14 0;
#X connect 18 0 22 0;
#X connect 20 0 21 0;
#X connect 20 0 25 0;
#X connect 22 0 19 0;
#X connect 22 1 20 0;
#X connect 29 0 30 0;
#X connect 30 0 40 0;
#X connect 30 1 41 0;
#X connect 30 2 42 0;
#X connect 30 3 43 0;
#X connect 33 0 6 0;
#X connect 34 0 36 0;
#X connect 34 0 44 0;
#X connect 35 0 11 0;
#X connect 37 0 15 0;
#X connect 37 1 12 0;
#X connect 37 2 35 0;
#X connect 38 0 10 0;
#X connect 38 1 7 0;
#X connect 38 2 33 0;
#X connect 39 0 33 0;
#X connect 40 0 32 0;
#X connect 41 0 32 0;
#X connect 42 0 32 0;
#X connect 43 0 32 0;
#X connect 44 0 38 0;
#X connect 44 1 37 0;
#X connect 44 2 20 0;
#X connect 45 0 46 2;
#X connect 47 0 46 0;
#X connect 48 0 46 4;
#X connect 49 0 46 3;
#X connect 50 0 46 1;
#X connect 51 0 47 0;
#X connect 51 1 50 0;
#X connect 51 2 45 0;
#X connect 52 0 51 0;
#X restore -22288 -8358 pd interno;
#X text -22625 -8018 0 _1 _2 _3 _4 _5 _6 _7 _8 _9 _10 11 12 13 14 15
16 17 18 19;
#X obj -22530 -8330 vradio 30 1 0 5 $timbre empty empty 0 -8 0 10 -262144
-1 -1 3;
#X text -22485 -8326 Harpsichord (harmônico);
#X text -22484 -8295 Tritono (inharmônico com espaçamento igual)
;
#X text -22483 -8263 Tingshaw (inharmônico natural);
#X text -22484 -8233 Timbre harmônico Sethares;
#N canvas 0 0 450 300 (subpatch) 0;
#X array \$0-ordemY 20 float 3;
#A 0 1.65864 1.49485 1.65864 1.49485 1.65864 1.59107 1.60214 1.49485
1.65864 1.65864 1.55833 1.42405 1.32869 1.32869 1.32869 1.42405 1.41421
1.24833 0 0;
#X array \$0-ordemX 20 float 3;
#A 0 1.32869 1.24833 1.23971 1.19748 1.38511 1.32869 1.19748 1.11729
1.10957 1.18921 1.24833 1.18921 1.15669 1.18921 1.10957 1.14076 1.23971
1.11729 0 0;
#X coords 0 2 20 0 200 140 1 0 0;
#X restore -22845 -8124 graph;
#X text -22848 -8359 1 - Escolha o timbre para criar os acordes;
#X text -22530 -8358 2 - Escolha o timbre para tocar;
#X text -22628 -8046 3 - Acordes em ordem de consonância sensorial
;
