#N canvas 302 122 765 492 10;
#X obj -22759 -8258 vradio 30 1 0 5 $timbre empty empty 0 -8 0 10 -262144
-1 -1 3;
#X text -22759 -8286 Escolha o timbre;
#X text -22714 -8254 Harpsichord (harmônico);
#X text -22713 -8223 Tritono (inharmônico com espaçamento igual)
;
#X text -22712 -8191 Tingshaw (inharmônico natural);
#X text -22713 -8161 Timbre harmônico Sethares;
#X obj -22811 -7958 tabread \$0-ordemX;
#X obj -22952 -7891 tocaParciais;
#X obj -22952 -7928 bng 15 250 50 0 empty empty empty 17 7 0 10 -262144
-1 -1;
#X obj -22693 -7918 r $amp;
#X obj -22693 -7937 r $freq;
#X obj -22933 -7959 tabread \$0-ordemY;
#N canvas 0 0 450 300 (subpatch) 0;
#X array \$0-ordemY 100 float 3;
#A 0 49 49 33 24 24 32 49 19 32 17 19 21 15 43 24 24 39 11 13 37 13
32 17 28 12 24 19 40 16 27 12 13 15 10 24 11 3 0 0 0 0 0 0 0 0 0 0
0 0 0 0 0 0 0 0 0 0 0 0 0 0 0 0 0 0 0 0 0 0 0 0 0 0 0 0 0 0 0 0 0 0
0 0 0 0 0 0 0 0 0 0 0 0 0 0 0 0 0 0 0;
#X array \$0-ordemX 100 float 3;
#A 0 75 86 78 66 86 65 66 79 76 76 49 82 73 79 49 55 74 67 51 83 70
49 66 71 49 77 59 87 55 59 87 89 32 84 11 24 55 0 0 0 0 0 0 0 0 0 0
0 0 0 0 0 0 0 0 0 0 0 0 0 0 0 0 0 0 0 0 0 0 0 0 0 0 0 0 0 0 0 0 0 0
0 0 0 0 0 0 0 0 0 0 0 0 0 0 0 0 0 0 0;
#X coords 0 131 100 0 200 140 1 0 0;
#X restore -22994 -8255 graph;
#X obj -22952 -8012 hradio 15 1 0 20 empty empty empty 0 -8 0 10 -262144
-1 -1 9;
#X obj -22952 -7991 t b f f;
#X text -22952 -8033 Acordes em ordem de consonância sensorial;
#N canvas 0 0 450 300 (subpatch) 0;
#X coords 0 1 100 -1 400 200 1 0 0;
#X restore -22993 -8054 graph;
#X obj -22811 -7938 expr 1+($f1/100);
#X obj -22933 -7939 expr 1+($f1/100);
#N canvas 65 81 450 300 interno 0;
#X obj -22395 -8256 r $timbre;
#X obj -22395 -8235 timbre;
#X obj -22362 -8213 s $amp;
#X obj -22379 -8194 s $freq;
#X obj -22395 -8174 s $init;
#X text -22206 -8260 Tocar os acordes encontrados: Ler de um arquivo
os pares de acordo com o timbre;
#X obj -22119 -8035 textfile;
#X obj -22181 -8181 bng 15 250 50 0 empty empty empty 17 7 0 10 -262144
-1 -1;
#X msg -22139 -8097 rewind;
#X obj -22158 -8185 loadbang;
#X msg -22074 -8013 stop;
#X obj -22193 -8038 bng 15 250 50 0 empty empty empty 17 7 0 10 -262144
-1 -1;
#X obj -22193 -8064 metro 100;
#X obj -22158 -8162 t b b b;
#X obj -21881 -8037 textfile;
#X obj -21942 -8187 bng 15 250 50 0 empty empty empty 17 7 0 10 -262144
-1 -1;
#X msg -21901 -8099 rewind;
#X obj -21920 -8187 loadbang;
#X msg -21836 -8015 stop;
#X obj -21957 -8043 bng 15 250 50 0 empty empty empty 17 7 0 10 -262144
-1 -1;
#X obj -21957 -8068 metro 100;
#X obj -21920 -8163 t b b b;
#X obj -22119 -7973 tabwrite \$0-ordemX;
#X obj -21881 -7975 tabwrite \$0-ordemY;
#X msg -22119 -8129 read pyDiss/rNotes.txt;
#X msg -21881 -8131 read pyDiss/sNotes.txt;
#X obj -21698 -8197 loadbang;
#X msg -21698 -8171 \; pd dsp 1;
#X connect 0 0 1 0;
#X connect 1 0 4 0;
#X connect 1 1 3 0;
#X connect 1 2 2 0;
#X connect 6 0 22 0;
#X connect 6 1 10 0;
#X connect 7 0 13 0;
#X connect 8 0 6 0;
#X connect 9 0 13 0;
#X connect 10 0 12 0;
#X connect 12 0 6 0;
#X connect 12 0 11 0;
#X connect 13 0 12 0;
#X connect 13 1 8 0;
#X connect 13 2 24 0;
#X connect 14 0 23 0;
#X connect 14 1 18 0;
#X connect 15 0 21 0;
#X connect 16 0 14 0;
#X connect 17 0 21 0;
#X connect 18 0 20 0;
#X connect 20 0 14 0;
#X connect 20 0 19 0;
#X connect 21 0 20 0;
#X connect 21 1 16 0;
#X connect 21 2 25 0;
#X connect 24 0 6 0;
#X connect 25 0 14 0;
#X connect 26 0 27 0;
#X restore -22328 -8278 pd interno;
#X connect 6 0 17 0;
#X connect 8 0 7 0;
#X connect 9 0 7 4;
#X connect 10 0 7 3;
#X connect 11 0 18 0;
#X connect 13 0 14 0;
#X connect 14 0 8 0;
#X connect 14 1 11 0;
#X connect 14 2 6 0;
#X connect 17 0 7 2;
#X connect 18 0 7 1;
