#N canvas 185 403 887 492 10;
#X obj -22759 -8258 vradio 30 1 0 5 \$0-criaAcordes empty empty 0 -8
0 10 -262144 -1 -1 1;
#X text -22714 -8254 Harpsichord (harmônico);
#X text -22713 -8223 Tritono (inharmônico com espaçamento igual)
;
#X text -22712 -8191 Tingshaw (inharmônico natural);
#X text -22713 -8161 Timbre harmônico Sethares;
#X obj -22811 -7936 tabread \$0-ordemX;
#X obj -22952 -7891 tocaParciais;
#X obj -22952 -7936 bng 15 250 50 0 empty empty empty 17 7 0 10 -262144
-1 -1;
#X obj -22693 -7918 r $amp;
#X obj -22693 -7937 r $freq;
#X obj -22933 -7937 tabread \$0-ordemY;
#N canvas 0 0 450 300 (subpatch) 0;
#X array \$0-ordemY 100 float 3;
#A 0 1.71713 1.40445 1.70527 1.71713 1.68179 1.65864 1.49485 1.43395
1.43395 1.43395 1.43395 1.38511 1.37554 1.32869 1.32869 0 0 0 0 0 0
0 0 0 0 0 0 0 0 0 0 0 0 0 0 0 0 0 0 0 0 0 0 0 0 0 0 0 0 0 0 0 0 0 0
0 0 0 0 0 0 0 0 0 0 0 0 0 0 0 0 0 0 0 0 0 0 0 0 0 0 0 0 0 0 0 0 0 0
0 0 0 0 0 0 0 0 0 0 0;
#X array \$0-ordemX 100 float 3;
#A 0 1.2142 1.18921 1.32869 1.37554 1.37554 1.37554 1.22264 1.23114
1.2142 1.19748 1.17283 1.18921 1.17283 1.14076 1.15669 0 0 0 0 0 0
0 0 0 0 0 0 0 0 0 0 0 0 0 0 0 0 0 0 0 0 0 0 0 0 0 0 0 0 0 0 0 0 0 0
0 0 0 0 0 0 0 0 0 0 0 0 0 0 0 0 0 0 0 0 0 0 0 0 0 0 0 0 0 0 0 0 0 0
0 0 0 0 0 0 0 0 0 0 0;
#X coords 0 2 100 0 200 140 1 0 0;
#X restore -22994 -8255 graph;
#X obj -22950 -8012 hradio 18 1 0 20 empty empty empty 0 -8 0 10 -262144
-1 -1 1;
#X obj -22952 -7991 t b f f;
#X text -22952 -8071 Acordes em ordem de consonância sensorial;
#N canvas 65 81 1375 819 interno 1;
#X obj -22395 -8256 r $timbre;
#X obj -22395 -8235 timbre;
#X obj -22362 -8213 s $amp;
#X obj -22379 -8194 s $freq;
#X obj -22395 -8174 s $init;
#X text -22206 -8260 Tocar os acordes encontrados: Ler de um arquivo
os pares de acordo com o timbre;
#X obj -22119 -8035 textfile;
#X obj -22181 -8181 bng 15 250 50 0 empty empty empty 17 7 0 10 -262144
-1 -1;
#X msg -22139 -8097 rewind;
#X msg -22074 -8013 stop;
#X obj -22193 -8038 bng 15 250 50 0 empty empty empty 17 7 0 10 -262144
-1 -1;
#X obj -22193 -8064 metro 100;
#X obj -22158 -8162 t b b b;
#X obj -21881 -8037 textfile;
#X obj -21942 -8187 bng 15 250 50 0 empty empty empty 17 7 0 10 -262144
-1 -1;
#X msg -21901 -8099 rewind;
#X msg -21836 -8015 stop;
#X obj -21957 -8043 bng 15 250 50 0 empty empty empty 17 7 0 10 -262144
-1 -1;
#X obj -21957 -8068 metro 100;
#X obj -21920 -8163 t b b b;
#X obj -22119 -7973 tabwrite \$0-ordemX;
#X obj -21881 -7975 tabwrite \$0-ordemY;
#X msg -22119 -8129 read pyDiss/rNotes.txt;
#X msg -21881 -8131 read pyDiss/sNotes.txt;
#X obj -21639 -8292 loadbang;
#X msg -21639 -8241 \; pd dsp 1;
#X msg -21612 -8198 const 0;
#X obj -21612 -8160 s \$0-ordemX;
#X obj -21639 -8271 t b b;
#X text -21543 -8201 Inicializa os vetores de intervalos;
#X text -21565 -8236 Liga o DSP;
#X obj -21612 -8132 s \$0-ordemY;
#X text -22015 -7822 Selecionar o timbre para criar a lista de acordes
;
#X text -22008 -7805 Rodar o comando no shell;
#X text -22001 -7787 Recarregar os pares no vetor;
#X obj -22031 -7842 r \$0-criaAcordes;
#X obj -22031 -7761 route 0 1 2 3 4;
#X obj -22048 -7545 s \$0-carregaAcordes;
#X obj -22181 -8234 r \$0-carregaAcordes;
#X obj -22075 -7565 shell;
#X msg -22075 -7722 symbol harm32.txt;
#X msg -22018 -7703 symbol tritone.txt;
#X msg -21984 -7684 symbol tingshaw.txt;
#X msg -21943 -7663 symbol harm6.txt;
#X obj -22104 -7498 print Carreguei;
#X obj -21627 -7746 loadbang;
#X obj -21627 -7674 shell;
#X obj -21630 -7645 print;
#X obj -21555 -7759 bng 15 250 50 0 empty empty empty 17 7 0 10 -262144
-1 -1;
#X msg -22075 -7612 python shayenne/SensorialDissonance/pyDiss/diss.py
-l < shayenne/SensorialDissonance/pyDiss/\$1;
#X msg -21627 -7722 ../../usr/bin/python3 shayenne/SensorialDissonance/pyDiss/diss.py
-l < harm6.txt;
#X obj -22181 -8214 t b b b;
#X connect 0 0 1 0;
#X connect 1 0 4 0;
#X connect 1 1 3 0;
#X connect 1 2 2 0;
#X connect 6 0 20 0;
#X connect 6 1 9 0;
#X connect 7 0 12 0;
#X connect 8 0 6 0;
#X connect 9 0 11 0;
#X connect 11 0 6 0;
#X connect 11 0 10 0;
#X connect 12 0 11 0;
#X connect 12 1 8 0;
#X connect 12 2 22 0;
#X connect 13 0 21 0;
#X connect 13 1 16 0;
#X connect 14 0 19 0;
#X connect 15 0 13 0;
#X connect 16 0 18 0;
#X connect 18 0 13 0;
#X connect 18 0 17 0;
#X connect 19 0 18 0;
#X connect 19 1 15 0;
#X connect 19 2 23 0;
#X connect 22 0 6 0;
#X connect 23 0 13 0;
#X connect 24 0 28 0;
#X connect 26 0 27 0;
#X connect 26 0 31 0;
#X connect 28 0 25 0;
#X connect 28 1 26 0;
#X connect 35 0 36 0;
#X connect 36 0 40 0;
#X connect 36 1 41 0;
#X connect 36 2 42 0;
#X connect 36 3 43 0;
#X connect 38 0 51 0;
#X connect 39 0 44 0;
#X connect 39 1 37 0;
#X connect 40 0 49 0;
#X connect 41 0 49 0;
#X connect 42 0 49 0;
#X connect 43 0 49 0;
#X connect 45 0 50 0;
#X connect 46 0 47 0;
#X connect 48 0 50 0;
#X connect 49 0 39 0;
#X connect 50 0 46 0;
#X connect 51 0 7 0;
#X connect 51 1 14 0;
#X connect 51 2 26 0;
#X restore -22994 -8110 pd interno;
#X text -22541 -7948 Jogar fora acordes que sejam parecidos na estrutura
(x-x)mod12 \, (y-x)mod12 \, (z-x)mod12;
#X text -22949 -8027 0 _1 _2 _3 _4 _5 _6 _7 _8 _9 _10 11 12 13 14 15
16 17 18 19;
#X obj -22441 -8257 vradio 30 1 0 5 $timbre empty empty 0 -8 0 10 -262144
-1 -1 1;
#X text -22396 -8253 Harpsichord (harmônico);
#X text -22395 -8222 Tritono (inharmônico com espaçamento igual)
;
#X text -22394 -8190 Tingshaw (inharmônico natural);
#X text -22395 -8160 Timbre harmônico Sethares;
#X text -22441 -8285 Escolha o timbre para tocar;
#X text -22759 -8286 Escolha o timbre para criar os acordes;
#X text -22335 -7998 Dente de serra sawtooth;
#X connect 5 0 6 2;
#X connect 7 0 6 0;
#X connect 8 0 6 4;
#X connect 9 0 6 3;
#X connect 10 0 6 1;
#X connect 12 0 13 0;
#X connect 13 0 7 0;
#X connect 13 1 10 0;
#X connect 13 2 5 0;
