#N canvas 0 132 739 365 10;
#X msg 11 26 500 1000 1500 2000 2500 3000;
#X text 13 7 Frequencias;
#X text 208 6 Amplitudes;
#X msg 206 27 1 0.3333 0.2 0.142857 0.1111 0.090909;
#N canvas 0 93 1440 807 innerLoop 0;
#X obj -230 -72 inlet;
#X obj -132 -71 inlet;
#X text -231 -90 Indice i;
#X text -133 -90 Indice j;
#X text 68 31 allpartialsatinterval[j];
#X text 226 52 freq[i];
#X text 22 112 fmin;
#X obj 57 114 expr if ($f1 < $f2 \, $f1 \, $f2);
#X obj 57 175 expr 0.24/(0.0207*$f1 + 18.96);
#X text 21 173 s;
#X obj 138 148 expr abs($f1 - $f2);
#X text 102 147 fdif;
#X obj 57 212 expr $f1 * $f2;
#X text 3 212 s * fdif;
#N canvas 599 520 450 300 exponencial 0;
#X obj 73 117 inlet;
#X obj 73 139 t f f;
#X obj 73 160 * -3.51;
#X obj 208 156 * -5.75;
#X obj 73 180 exp;
#X obj 208 176 exp;
#X obj 73 204 expr 5 * $f1 + -5 * $f2;
#X obj 73 225 outlet;
#X connect 0 0 1 0;
#X connect 1 0 2 0;
#X connect 1 1 3 0;
#X connect 2 0 4 0;
#X connect 3 0 5 0;
#X connect 4 0 6 0;
#X connect 5 0 6 1;
#X connect 6 0 7 0;
#X restore 57 241 pd exponencial;
#X text -145 215 amp[i];
#X text -58 232 amp[j];
#X obj -162 300 outlet;
#X text -108 299 dnew;
#X obj 391 42 r $all;
#X obj 357 59 list;
#X obj 357 11 t b f;
#X obj 357 82 list-idx 2;
#X floatatom 357 -9 5 0 0 0 - - -;
#X floatatom 357 104 5 0 0 0 - - -;
#X obj 357 -29 r $j;
#X obj 456 57 list;
#X obj 456 9 t b f;
#X obj 456 80 list-idx 2;
#X floatatom 456 -11 5 0 0 0 - - -;
#X floatatom 456 102 5 0 0 0 - - -;
#X obj 456 -31 r $i;
#X obj 490 40 r $freq;
#X obj 551 57 list;
#X obj 551 9 t b f;
#X obj 551 80 list-idx 2;
#X floatatom 551 -11 5 0 0 0 - - -;
#X floatatom 551 102 5 0 0 0 - - -;
#X obj 551 -31 r $i;
#X obj 654 59 list;
#X obj 654 11 t b f;
#X obj 654 82 list-idx 2;
#X floatatom 654 -9 5 0 0 0 - - -;
#X floatatom 654 104 5 0 0 0 - - -;
#X obj 654 -29 r $j;
#X obj 585 40 r $amp;
#X obj 688 42 r $amp;
#X obj 357 125 s $all[j];
#X obj 456 125 s $freq[i];
#X obj 551 125 s $amp[i];
#X obj 654 127 s $amp[j];
#X obj 72 51 r $all[j];
#X obj 228 71 r $freq[i];
#X obj -230 -50 s $i;
#X obj -132 -50 s $j;
#X obj -147 232 r $amp[j];
#X obj -53 253 r $amp[i];
#X obj -162 275 expr if ($f2 < $f1 \, $f2*$f3 \, $f1*$f3);
#X obj 57 12 delay 10;
#X obj 57 95 t f f;
#X obj 228 95 t f f;
#X obj 57 74 f;
#X obj -162 254 f;
#X obj -162 -23 t b b;
#X obj -162 10 delay 10;
#X connect 0 0 53 0;
#X connect 1 0 54 0;
#X connect 1 0 63 0;
#X connect 7 0 8 0;
#X connect 8 0 12 0;
#X connect 10 0 12 1;
#X connect 12 0 14 0;
#X connect 14 0 57 2;
#X connect 19 0 20 1;
#X connect 20 0 22 0;
#X connect 21 0 20 0;
#X connect 21 1 22 1;
#X connect 22 0 24 0;
#X connect 23 0 21 0;
#X connect 24 0 47 0;
#X connect 25 0 23 0;
#X connect 26 0 28 0;
#X connect 27 0 26 0;
#X connect 27 1 28 1;
#X connect 28 0 30 0;
#X connect 29 0 27 0;
#X connect 30 0 48 0;
#X connect 31 0 29 0;
#X connect 32 0 26 1;
#X connect 33 0 35 0;
#X connect 34 0 33 0;
#X connect 34 1 35 1;
#X connect 35 0 37 0;
#X connect 36 0 34 0;
#X connect 37 0 49 0;
#X connect 38 0 36 0;
#X connect 39 0 41 0;
#X connect 40 0 39 0;
#X connect 40 1 41 1;
#X connect 41 0 43 0;
#X connect 42 0 40 0;
#X connect 43 0 50 0;
#X connect 44 0 42 0;
#X connect 45 0 33 1;
#X connect 46 0 39 1;
#X connect 51 0 61 1;
#X connect 52 0 60 0;
#X connect 55 0 62 1;
#X connect 56 0 57 1;
#X connect 57 0 17 0;
#X connect 58 0 61 0;
#X connect 59 0 7 0;
#X connect 59 1 10 0;
#X connect 60 0 7 1;
#X connect 60 1 10 1;
#X connect 61 0 59 0;
#X connect 62 0 57 0;
#X connect 63 0 64 0;
#X connect 63 1 58 0;
#X connect 64 0 62 0;
#X restore 104 199 pd innerLoop;
#N canvas 0 93 1440 807 indices 0;
#X obj 224 90 until;
#X obj 258 122 + 1;
#X obj 224 122 f;
#X obj 224 146 moses;
#X obj 295 122 bang;
#X text 152 174 Indice i;
#X obj 224 230 until;
#X obj 258 262 + 1;
#X obj 224 262 f;
#X obj 224 286 moses;
#X obj 295 262 bang;
#X obj 224 329 f;
#X obj 155 194 f;
#X text 222 310 Indice j;
#X msg 267 231 0;
#X msg 270 91 0;
#X obj 224 177 t b b f;
#X obj 224 39 inlet;
#X obj 224 350 outlet;
#X obj 155 215 outlet;
#X obj 403 129 f 1;
#X obj 418 42 inlet;
#X obj 224 62 t b b b;
#X text 399 113 Isso deve ser o numero de parciais;
#X obj 485 193 delay 1000;
#X connect 0 0 2 0;
#X connect 1 0 2 1;
#X connect 2 0 1 0;
#X connect 2 0 3 0;
#X connect 3 0 16 0;
#X connect 3 1 4 0;
#X connect 4 0 0 1;
#X connect 6 0 8 0;
#X connect 7 0 8 1;
#X connect 8 0 7 0;
#X connect 8 0 9 0;
#X connect 9 0 11 0;
#X connect 9 1 10 0;
#X connect 10 0 6 1;
#X connect 11 0 18 0;
#X connect 12 0 19 0;
#X connect 14 0 8 1;
#X connect 15 0 2 1;
#X connect 16 0 6 0;
#X connect 16 1 14 0;
#X connect 16 2 12 0;
#X connect 17 0 22 0;
#X connect 20 0 9 1;
#X connect 20 0 3 1;
#X connect 21 0 20 1;
#X connect 22 0 0 0;
#X connect 22 1 15 0;
#X connect 22 2 20 0;
#X connect 24 0 8 0;
#X restore 104 176 pd indices;
#X obj 104 154 bng 15 250 50 0 empty empty empty 17 7 0 10 -262144
-1 -1;
#X msg 161 154 10;
#X text 325 234 allpartialsatinterval;
#X obj 459 234 list-math *;
#X obj 11 54 s $freq;
#X obj 459 212 r $freq;
#X obj 524 212 f 2;
#X obj 459 256 s $all;
#X obj 206 54 s $amp;
#X obj 195 154 list length;
#X obj 195 134 r $freq;
#X obj 72 223 f;
#X obj 72 245 s $d;
#X msg 64 196 0;
#X obj 127 248 print dnew;
#X obj 104 223 +;
#X msg 524 130 1;
#X msg 531 151 1.1;
#X msg 536 171 1.3;
#X msg 540 191 1.5;
#X text 529 101 incremento;
#X text 100 319 Falta fazer o loop externo que tem como variavel 'incremento'
e pegar o valor de cada d ao fim de cada loop. Guardar tudo em um vetor
e plotar no gráfico.;
#X connect 0 0 10 0;
#X connect 3 0 14 0;
#X connect 4 0 21 0;
#X connect 5 0 4 0;
#X connect 5 1 4 1;
#X connect 6 0 5 0;
#X connect 7 0 5 1;
#X connect 9 0 13 0;
#X connect 11 0 9 0;
#X connect 12 0 9 1;
#X connect 15 0 5 1;
#X connect 16 0 15 0;
#X connect 17 0 18 0;
#X connect 17 0 20 0;
#X connect 17 0 21 1;
#X connect 19 0 17 0;
#X connect 21 0 17 0;
#X connect 22 0 12 0;
#X connect 23 0 12 0;
#X connect 24 0 12 0;
#X connect 25 0 12 0;
