#N canvas 0 93 450 300 10;
#X msg 66 53 500 1000 1500 2000 2500 3000;
#X text 68 34 Frequencias;
#X text 263 33 Amplitudes;
#X msg 261 52 1 0.3333 0.2 0.142857 0.1111 0.090909;
#N canvas 178 283 450 300 pedaco 0;
#X obj 63 60 inlet;
#X obj 102 60 inlet;
#X obj 63 106 -;
#X obj 63 129 t f f;
#X obj 63 150 * -3.51;
#X obj 198 146 * -5.75;
#X obj 63 170 exp;
#X obj 198 166 exp;
#X obj 63 194 expr 5 * $f1 + -5 * $f2;
#X obj 63 215 outlet;
#X connect 0 0 2 0;
#X connect 1 0 2 1;
#X connect 2 0 3 0;
#X connect 3 0 4 0;
#X connect 3 1 5 0;
#X connect 4 0 6 0;
#X connect 5 0 7 0;
#X connect 6 0 8 0;
#X connect 7 0 8 1;
#X connect 8 0 9 0;
#X restore 67 164 pd pedaco;
