#N canvas 0 93 1440 807 10;
#X msg 63 -326 1 1 1;
#X msg 453 -327 2368 4784 5553 7921 10103;
#X msg 433 -307 1 0.5 1 0.6 0.5;
#X obj -118 -770 route 0 1 2 3;
#X obj 44 -407 t b b b;
#X obj 414 -351 t b b b;
#X obj -485 -499 t b b b;
#X msg -446 -459 380 760 1140 1520 1900 2280 2660 3040 3420 3800 4180
4560 4940 5320 5700 6080 6460 6840 7220 7600 7980 8360 8740 9120 9500
9880 10260 10640 11020 11400 11780 12160;
#X msg -466 -404 1 0.75 0.5625 0.421875 0.316406 0.237305 0.177979
0.133484 0.100113 0.0750847 0.0563135 0.0422351 0.0316764 0.0237573
0.0178179 0.0133635 0.0100226 0.00751695 0.00563771 0.00422828 0.00317121
0.00237841 0.00178381 0.00133786 0.00100339 0.000752543 0.000564408
0.000423306 0.000317479 0.000238109 0.000178582 0.000133937;
#X obj -190 -225 outlet init;
#X obj -113 -225 outlet freq;
#X obj -36 -225 outlet amp;
#X obj -466 -282 send amp;
#X obj -445 -303 send freq;
#X obj -532 -460 send init;
#X obj -12 -374 send init;
#X obj 63 -303 send amp;
#X obj 83 -352 send freq;
#X obj 349 -299 send init;
#X obj 433 -248 send amp;
#X obj 453 -269 send freq;
#X obj -119 -791 inlet timbre;
#X obj -190 -247 r init;
#X obj -113 -246 r freq;
#X obj -36 -246 r amp;
#X text -426 -497 Harpsichord;
#X text 103 -406 Tritone + 1;
#X text 472 -351 Tingshaw;
#X msg 83 -374 440 622;
#X msg 435 -454 400 800 1200 1600 2000;
#X msg 415 -431 1 0.88 0.77 0.68 0.6;
#X obj 396 -477 t b b b;
#X text 454 -477 Timbre harmonico comum Setahres;
#X obj 415 -384 send amp;
#X obj 435 -405 send freq;
#X obj 319 -444 send init;
#X obj 392 -666 t b b b;
#X text 450 -666 Timbre harmonico comum Setahres;
#X obj 411 -573 send amp;
#X obj 431 -594 send freq;
#X obj 315 -633 send init;
#X msg 411 -620 1 0.88 0.77 0.68;
#X msg 431 -643 400 800;
#X connect 0 0 16 0;
#X connect 1 0 20 0;
#X connect 2 0 19 0;
#X connect 3 0 6 0;
#X connect 3 1 4 0;
#X connect 3 2 5 0;
#X connect 3 3 31 0;
#X connect 3 4 36 0;
#X connect 4 0 15 0;
#X connect 4 1 0 0;
#X connect 4 2 28 0;
#X connect 5 0 18 0;
#X connect 5 1 2 0;
#X connect 5 2 1 0;
#X connect 6 0 14 0;
#X connect 6 1 8 0;
#X connect 6 2 7 0;
#X connect 7 0 13 0;
#X connect 8 0 12 0;
#X connect 21 0 3 0;
#X connect 22 0 9 0;
#X connect 23 0 10 0;
#X connect 24 0 11 0;
#X connect 28 0 17 0;
#X connect 29 0 34 0;
#X connect 30 0 33 0;
#X connect 31 0 35 0;
#X connect 31 1 30 0;
#X connect 31 2 29 0;
#X connect 36 0 40 0;
#X connect 36 1 41 0;
#X connect 36 2 42 0;
#X connect 41 0 38 0;
#X connect 42 0 39 0;
