#N canvas 65 81 1375 807 10;
#X msg -35 -414 1 1 1;
#X msg 121 -429 1 0.5 1 0.6 0.5;
#X obj -118 -770 route 0 1 2 3;
#X obj -54 -495 t b b b;
#X obj 102 -495 t b b b;
#X obj -485 -499 t b b b;
#X msg -466 -404 1 0.75 0.5625 0.421875 0.316406 0.237305 0.177979
0.133484 0.100113 0.0750847 0.0563135 0.0422351 0.0316764 0.0237573
0.0178179 0.0133635 0.0100226 0.00751695 0.00563771 0.00422828 0.00317121
0.00237841 0.00178381 0.00133786 0.00100339 0.000752543 0.000564408
0.000423306 0.000317479 0.000238109 0.000178582 0.000133937;
#X obj -467 -165 outlet init;
#X obj -390 -165 outlet freq;
#X obj -313 -165 outlet amp;
#X obj -466 -318 send amp;
#X obj -446 -423 send freq;
#X obj -485 -297 send init;
#X obj -54 -369 send init;
#X obj -35 -391 send amp;
#X obj -15 -440 send freq;
#X obj 102 -387 send init;
#X obj 121 -408 send amp;
#X obj 141 -450 send freq;
#X obj -119 -791 inlet timbre;
#X obj -467 -187 r init;
#X obj -390 -186 r freq;
#X obj -313 -186 r amp;
#X text -426 -497 Harpsichord;
#X text 5 -494 Tritone + 1;
#X text 160 -495 Tingshaw;
#X msg -15 -462 440 622;
#X obj 371 -496 t b b b;
#X text 429 -496 Timbre harmonico comum Setahres;
#X obj 390 -403 send amp;
#X obj 410 -450 send freq;
#X obj 371 -383 send init;
#X obj 638 -493 t b b b;
#X text 696 -493 Timbre harmonico comum Setahres;
#X obj 657 -400 send amp;
#X obj 677 -448 send freq;
#X obj 638 -379 send init;
#X msg 657 -421 1 0.88 0.77 0.68;
#X msg 390 -424 1 0.88 0.77 0.68 0.6 0.53;
#X msg 410 -473 440 880 1320 1760 2200 2640;
#X msg 677 -470 440 880;
#X msg -446 -470 440 880 1320 1760 2200 2640 3080 3520 3960 4400 4840
5280 5720 6160 6600 7040 7480 7920 8360 8800 9240 9680 10120 10560
11000 11440 11880 12320 12760 13200 13640 14080;
#X msg 141 -472 440 888.92 1031.8 1471.8 1877.25;
#X connect 0 0 14 0;
#X connect 1 0 17 0;
#X connect 2 0 5 0;
#X connect 2 1 3 0;
#X connect 2 2 4 0;
#X connect 2 3 27 0;
#X connect 2 4 32 0;
#X connect 3 0 13 0;
#X connect 3 1 0 0;
#X connect 3 2 26 0;
#X connect 4 0 16 0;
#X connect 4 1 1 0;
#X connect 4 2 42 0;
#X connect 5 0 12 0;
#X connect 5 1 6 0;
#X connect 5 2 41 0;
#X connect 6 0 10 0;
#X connect 19 0 2 0;
#X connect 20 0 7 0;
#X connect 21 0 8 0;
#X connect 22 0 9 0;
#X connect 26 0 15 0;
#X connect 27 0 31 0;
#X connect 27 1 38 0;
#X connect 27 2 39 0;
#X connect 32 0 36 0;
#X connect 32 1 37 0;
#X connect 32 2 40 0;
#X connect 37 0 34 0;
#X connect 38 0 29 0;
#X connect 39 0 30 0;
#X connect 40 0 35 0;
#X connect 41 0 11 0;
#X connect 42 0 18 0;
