#N canvas 0 93 1440 807 10;
#X obj 1253 11 list-accum;
#X obj 1190 52 list-math /;
#X obj 1190 75 s $amp_n;
#X obj 20 98 delay 2000;
#X obj 20 207 f;
#X obj 20 227 moses;
#X obj 104 218 bang;
#X obj 20 161 t b b;
#X obj 20 142 until;
#X obj 54 207 + 1;
#X msg 35 186 0;
#X msg 71 276 symbol amp\$1;
#X msg 73 324 symbol freq\$1;
#X obj 56 344 s;
#X obj 56 298 s;
#X obj 20 119 t b b;
#X obj 85 181 * 2;
#X text 6 74 Para de tocar após 2 segundos;
#X msg 37 275 0;
#X obj 20 247 t b b f f;
#X msg 20 317 0;
#N canvas 0 477 450 300 parciais 0;
#X obj 10 0 parcial 0;
#X obj 10 30 parcial 1;
#X obj 10 60 parcial 2;
#X obj 10 90 parcial 3;
#X obj 10 120 parcial 4;
#X obj 10 150 parcial 5;
#X obj 10 180 parcial 6;
#X obj 10 210 parcial 7;
#X obj 10 240 parcial 8;
#X obj 10 270 parcial 9;
#X obj 10 0 parcial 0;
#X obj 10 30 parcial 1;
#X obj 10 60 parcial 2;
#X obj 10 90 parcial 3;
#X obj 10 120 parcial 4;
#X obj 10 150 parcial 5;
#X obj 10 180 parcial 6;
#X obj 10 210 parcial 7;
#X obj 10 240 parcial 8;
#X obj 10 270 parcial 9;
#X obj 10 0 parcial 0;
#X obj 10 30 parcial 1;
#X obj 10 60 parcial 2;
#X obj 10 90 parcial 3;
#X obj 10 120 parcial 4;
#X obj 10 150 parcial 5;
#X obj 10 180 parcial 6;
#X obj 10 210 parcial 7;
#X obj 10 240 parcial 8;
#X obj 10 270 parcial 9;
#X obj 10 0 parcial 0;
#X obj 10 30 parcial 1;
#X obj 10 60 parcial 2;
#X obj 10 90 parcial 3;
#X obj 10 120 parcial 4;
#X obj 10 150 parcial 5;
#X obj 10 180 parcial 6;
#X obj 10 210 parcial 7;
#X obj 10 240 parcial 8;
#X obj 10 270 parcial 9;
#X obj 10 0 parcial 0;
#X obj 10 30 parcial 1;
#X obj 10 60 parcial 2;
#X obj 10 90 parcial 3;
#X obj 10 120 parcial 4;
#X obj 10 150 parcial 5;
#X obj 10 180 parcial 6;
#X obj 10 210 parcial 7;
#X obj 10 240 parcial 8;
#X obj 10 270 parcial 9;
#X obj 10 0 parcial 0;
#X obj 10 30 parcial 1;
#X obj 10 60 parcial 2;
#X obj 10 90 parcial 3;
#X obj 10 120 parcial 4;
#X obj 10 150 parcial 5;
#X obj 10 180 parcial 6;
#X obj 10 210 parcial 7;
#X obj 10 240 parcial 8;
#X obj 10 270 parcial 9;
#X obj 10 0 parcial 0;
#X obj 10 30 parcial 1;
#X obj 10 60 parcial 2;
#X obj 10 90 parcial 3;
#X obj 10 120 parcial 4;
#X obj 10 150 parcial 5;
#X obj 10 180 parcial 6;
#X obj 10 210 parcial 7;
#X obj 10 240 parcial 8;
#X obj 10 270 parcial 9;
#X obj 10 0 parcial 0;
#X obj 10 30 parcial 1;
#X obj 10 60 parcial 2;
#X obj 10 90 parcial 3;
#X obj 10 120 parcial 4;
#X obj 10 150 parcial 5;
#X obj 10 180 parcial 6;
#X obj 10 210 parcial 7;
#X obj 10 240 parcial 8;
#X obj 10 270 parcial 9;
#X obj 10 0 parcial 0;
#X obj 10 30 parcial 1;
#X obj 10 60 parcial 2;
#X obj 10 90 parcial 3;
#X obj 10 120 parcial 4;
#X obj 10 150 parcial 5;
#X obj 10 180 parcial 6;
#X obj 10 210 parcial 7;
#X obj 10 240 parcial 8;
#X obj 10 270 parcial 9;
#X obj 10 0 parcial 0;
#X obj 10 30 parcial 1;
#X obj 10 60 parcial 2;
#X obj 10 90 parcial 3;
#X obj 10 120 parcial 4;
#X obj 10 150 parcial 5;
#X obj 10 180 parcial 6;
#X obj 10 210 parcial 7;
#X obj 10 240 parcial 8;
#X obj 10 270 parcial 9;
#X obj 10 0 parcial 0;
#X obj 10 30 parcial 1;
#X obj 10 60 parcial 2;
#X obj 10 90 parcial 3;
#X obj 10 120 parcial 4;
#X obj 10 150 parcial 5;
#X obj 10 180 parcial 6;
#X obj 10 210 parcial 7;
#X obj 10 240 parcial 8;
#X obj 10 270 parcial 9;
#X obj 10 300 parcial 10;
#X obj 10 330 parcial 11;
#X obj 10 0 parcial 0;
#X obj 10 30 parcial 1;
#X obj 10 60 parcial 2;
#X obj 10 90 parcial 3;
#X obj 10 120 parcial 4;
#X obj 10 150 parcial 5;
#X obj 10 180 parcial 6;
#X obj 10 210 parcial 7;
#X obj 10 240 parcial 8;
#X obj 10 270 parcial 9;
#X obj 10 0 parcial 0;
#X obj 10 30 parcial 1;
#X obj 10 60 parcial 2;
#X obj 10 90 parcial 3;
#X obj 10 120 parcial 4;
#X obj 10 150 parcial 5;
#X obj 10 180 parcial 6;
#X obj 10 210 parcial 7;
#X obj 10 240 parcial 8;
#X obj 10 270 parcial 9;
#X obj 10 300 parcial 10;
#X obj 10 330 parcial 11;
#X obj 10 0 parcial 0;
#X obj 10 30 parcial 1;
#X obj 10 60 parcial 2;
#X obj 10 90 parcial 3;
#X obj 10 120 parcial 4;
#X obj 10 150 parcial 5;
#X obj 10 180 parcial 6;
#X obj 10 210 parcial 7;
#X obj 10 240 parcial 8;
#X obj 10 270 parcial 9;
#X obj 10 0 parcial 0;
#X obj 10 30 parcial 1;
#X obj 10 60 parcial 2;
#X obj 10 90 parcial 3;
#X obj 10 120 parcial 4;
#X obj 10 150 parcial 5;
#X obj 10 180 parcial 6;
#X obj 10 210 parcial 7;
#X obj 10 240 parcial 8;
#X obj 10 270 parcial 9;
#X obj 10 300 parcial 10;
#X obj 10 330 parcial 11;
#X obj 10 0 parcial 0;
#X obj 10 30 parcial 1;
#X obj 10 60 parcial 2;
#X obj 10 90 parcial 3;
#X obj 10 120 parcial 4;
#X obj 10 150 parcial 5;
#X obj 10 180 parcial 6;
#X obj 10 210 parcial 7;
#X obj 10 240 parcial 8;
#X obj 10 270 parcial 9;
#X obj 10 300 parcial 10;
#X obj 10 330 parcial 11;
#X obj 10 0 parcial 0;
#X obj 10 30 parcial 1;
#X obj 10 60 parcial 2;
#X obj 10 90 parcial 3;
#X obj 10 120 parcial 4;
#X obj 10 150 parcial 5;
#X obj 10 180 parcial 6;
#X obj 10 210 parcial 7;
#X obj 10 240 parcial 8;
#X obj 10 270 parcial 9;
#X obj 10 300 parcial 10;
#X obj 10 330 parcial 11;
#X obj 10 0 parcial 0;
#X obj 10 30 parcial 1;
#X obj 10 60 parcial 2;
#X obj 10 90 parcial 3;
#X obj 10 120 parcial 4;
#X obj 10 150 parcial 5;
#X obj 10 180 parcial 6;
#X obj 10 210 parcial 7;
#X obj 10 240 parcial 8;
#X obj 10 270 parcial 9;
#X obj 10 300 parcial 10;
#X obj 10 330 parcial 11;
#X obj 10 0 parcial 0;
#X obj 10 30 parcial 1;
#X obj 10 60 parcial 2;
#X obj 10 90 parcial 3;
#X obj 10 120 parcial 4;
#X obj 10 150 parcial 5;
#X obj 10 180 parcial 6;
#X obj 10 210 parcial 7;
#X obj 10 240 parcial 8;
#X obj 10 270 parcial 9;
#X obj 10 300 parcial 10;
#X obj 10 330 parcial 11;
#X obj 10 0 parcial 0;
#X obj 10 30 parcial 1;
#X obj 10 60 parcial 2;
#X obj 10 90 parcial 3;
#X obj 10 120 parcial 4;
#X obj 10 150 parcial 5;
#X obj 10 180 parcial 6;
#X obj 10 210 parcial 7;
#X obj 10 240 parcial 8;
#X obj 10 270 parcial 9;
#X obj 10 300 parcial 10;
#X obj 10 330 parcial 11;
#X obj 10 0 parcial 0;
#X obj 10 30 parcial 1;
#X obj 10 60 parcial 2;
#X obj 10 90 parcial 3;
#X obj 10 120 parcial 4;
#X obj 10 150 parcial 5;
#X obj 10 180 parcial 6;
#X obj 10 210 parcial 7;
#X obj 10 0 parcial 0;
#X obj 10 30 parcial 1;
#X obj 10 60 parcial 2;
#X obj 10 90 parcial 3;
#X obj 10 120 parcial 4;
#X obj 10 150 parcial 5;
#X obj 10 180 parcial 6;
#X obj 10 210 parcial 7;
#X obj 10 240 parcial 8;
#X obj 10 270 parcial 9;
#X obj 10 300 parcial 10;
#X obj 10 330 parcial 11;
#X obj 10 0 parcial 0;
#X obj 10 30 parcial 1;
#X obj 10 60 parcial 2;
#X obj 10 90 parcial 3;
#X obj 10 120 parcial 4;
#X obj 10 150 parcial 5;
#X obj 10 180 parcial 6;
#X obj 10 210 parcial 7;
#X obj 10 240 parcial 8;
#X obj 10 270 parcial 9;
#X obj 10 300 parcial 10;
#X obj 10 330 parcial 11;
#X obj 10 0 parcial 0;
#X obj 10 30 parcial 1;
#X obj 10 60 parcial 2;
#X obj 10 90 parcial 3;
#X obj 10 120 parcial 4;
#X obj 10 150 parcial 5;
#X obj 10 180 parcial 6;
#X obj 10 210 parcial 7;
#X obj 10 240 parcial 8;
#X obj 10 270 parcial 9;
#X obj 10 300 parcial 10;
#X obj 10 330 parcial 11;
#X obj 10 0 parcial 0;
#X obj 10 30 parcial 1;
#X obj 10 60 parcial 2;
#X obj 10 90 parcial 3;
#X obj 10 120 parcial 4;
#X obj 10 150 parcial 5;
#X obj 10 180 parcial 6;
#X obj 10 210 parcial 7;
#X obj 10 240 parcial 8;
#X obj 10 270 parcial 9;
#X obj 10 0 parcial 0;
#X obj 10 30 parcial 1;
#X obj 10 60 parcial 2;
#X obj 10 90 parcial 3;
#X obj 10 120 parcial 4;
#X obj 10 150 parcial 5;
#X obj 10 180 parcial 6;
#X obj 10 210 parcial 7;
#X obj 10 240 parcial 8;
#X obj 10 270 parcial 9;
#X obj 10 0 parcial 0;
#X obj 10 30 parcial 1;
#X obj 10 60 parcial 2;
#X obj 10 90 parcial 3;
#X obj 10 120 parcial 4;
#X obj 10 150 parcial 5;
#X obj 10 180 parcial 6;
#X obj 10 210 parcial 7;
#X obj 10 240 parcial 8;
#X obj 10 270 parcial 9;
#X obj 10 300 parcial 10;
#X obj 10 330 parcial 11;
#X obj 10 0 parcial 0;
#X obj 10 30 parcial 1;
#X obj 10 60 parcial 2;
#X obj 10 90 parcial 3;
#X obj 10 120 parcial 4;
#X obj 10 150 parcial 5;
#X obj 10 180 parcial 6;
#X obj 10 210 parcial 7;
#X obj 10 0 parcial 0;
#X obj 10 30 parcial 1;
#X obj 10 60 parcial 2;
#X obj 10 90 parcial 3;
#X obj 10 120 parcial 4;
#X obj 10 150 parcial 5;
#X obj 10 180 parcial 6;
#X obj 10 210 parcial 7;
#X obj 10 240 parcial 8;
#X obj 10 270 parcial 9;
#X obj 10 0 parcial 0;
#X obj 10 30 parcial 1;
#X obj 10 60 parcial 2;
#X obj 10 90 parcial 3;
#X obj 10 120 parcial 4;
#X obj 10 150 parcial 5;
#X obj 10 180 parcial 6;
#X obj 10 210 parcial 7;
#X obj 10 0 parcial 0;
#X obj 10 30 parcial 1;
#X obj 10 60 parcial 2;
#X obj 10 90 parcial 3;
#X obj 10 120 parcial 4;
#X obj 10 150 parcial 5;
#X obj 10 180 parcial 6;
#X obj 10 210 parcial 7;
#X obj 10 240 parcial 8;
#X obj 10 270 parcial 9;
#X obj 10 300 parcial 10;
#X obj 10 330 parcial 11;
#X restore 1063 -163 pd parciais;
#X obj 772 127 s pd-parciais;
#X msg 772 92 editmode 1 \, selectall \, cut;
#X text 1086 -92 Normaliza as amplitudes;
#X text 253 -186 Define os parciais que devem ser tocados \, manda
tocar \, e para após um tempo.;
#X obj 642 175 f;
#X obj 642 199 moses;
#X obj 726 176 bang;
#X obj 642 119 t b b;
#X obj 642 93 until;
#X obj 676 175 + 1;
#X msg 659 149 0;
#X obj 642 258 pack f f;
#X obj 687 238 * 30;
#X obj 642 298 s pd-parciais;
#X msg 642 278 obj 10 \$2 parcial \$1;
#X obj 693 102 r tam;
#X obj 693 123 * 2;
#X obj 85 161 r tam;
#X obj 780 8 list length;
#X obj 780 29 s tam;
#X obj 642 221 t f f;
#X obj 239 206 tabread \$0-freq;
#X msg 254 227 symbol freq\$1;
#X obj 239 248 s;
#X obj 239 138 f;
#X obj 239 162 moses;
#X obj 323 139 bang;
#X obj 239 82 t b b;
#X obj 239 56 until;
#X obj 273 138 + 1;
#X msg 254 112 0;
#X obj 290 65 r tam;
#X obj 239 35 t b b;
#X obj 239 184 t f f;
#X obj 370 209 tabread \$0-freq;
#X msg 385 230 symbol freq\$1;
#X obj 370 319 s;
#X obj 370 141 f;
#X obj 370 165 moses;
#X obj 454 142 bang;
#X obj 370 85 t b b;
#X obj 370 59 until;
#X obj 404 141 + 1;
#X msg 385 115 0;
#X obj 421 68 r tam;
#X obj 370 38 t b b;
#X obj 370 187 t f f;
#X obj 1090 386 s;
#X obj 1090 276 f;
#X obj 1090 300 moses;
#X obj 1090 220 t b b;
#X obj 1090 194 until;
#X obj 1124 276 + 1;
#X msg 1105 250 0;
#X obj 1141 203 r tam;
#X obj 1090 173 t b b;
#X obj 1090 322 t f f;
#X obj 414 192 +;
#X obj 429 172 r tam;
#X obj 370 300 *;
#X obj 397 283 f;
#X obj 370 262 t f b;
#X msg 1105 365 symbol amp\$1;
#X obj 1174 277 bang;
#X obj 1090 344 tabread \$0-amp_n;
#X obj 1215 385 s;
#X obj 1215 275 f;
#X obj 1215 299 moses;
#X obj 1215 219 t b b;
#X obj 1215 193 until;
#X obj 1249 275 + 1;
#X msg 1230 249 0;
#X obj 1266 202 r tam;
#X obj 1215 172 t b b;
#X obj 1215 321 t f f;
#X msg 1230 364 symbol amp\$1;
#X obj 1299 283 bang;
#X obj 1215 343 tabread \$0-amp_n;
#X obj 1259 321 +;
#X obj 1274 301 r tam;
#X text 774 75 Limpa os parciais anteriores;
#X obj 1253 31 * 2;
#X obj 1287 115 print lista;
#X obj 450 -13 output~;
#X obj 449 -51 catch~ outL;
#X obj 220 -64 inlet toca;
#X obj 642 -58 inlet freq;
#X obj 1090 -64 inlet amp;
#X obj 412 262 inlet intervalo;
#N canvas 0 298 1087 588 criaVetores 0;
#X floatatom 128 103 0 0 99 1 index - -;
#X floatatom 35 103 0 0 0 0 value - -;
#X obj 35 124 tabwrite \$0-freq;
#X floatatom 334 102 0 0 99 1 index - -;
#X floatatom 247 102 0 0 0 0 value - -;
#X floatatom 553 102 0 0 99 1 index - -;
#X floatatom 466 102 0 0 0 0 value - -;
#X obj 247 123 tabwrite \$0-amp;
#X obj 466 123 tabwrite \$0-all;
#X obj 35 -27 list split 1;
#X obj 35 -74 r $freq;
#X obj 74 16 list append;
#X obj 128 79 + 1;
#N canvas 0 0 450 300 (subpatch) 0;
#X array \$0-amp 20 float 3;
#A 0 0.5 0.5 1 0.9 0.9 0.2 -0.00195027 -0.00195027 0 0 0 0 0 0 0 0
0 0 0 0;
#X coords 0 1 20 0 200 140 1 0 0;
#X restore 224 231 graph;
#N canvas 0 0 450 300 (subpatch) 0;
#X array \$0-all 20 float 3;
#A 0 4600 3680 2760 1840 920 1150 0 920 -41.3926 0 0 0 0 0 0 0 0 0
0 0;
#X coords 0 10000 20 0 200 140 1 0 0;
#X restore 441 232 graph;
#N canvas 0 0 450 300 (subpatch) 0;
#X array \$0-freq 20 float 3;
#A 0 7666 5066 4068 2167 2040 1351 0 400 214.258 214.258 214.258 214.258
214.258 214.258 214.258 214.258 214.258 214.258 214.258 214.258;
#X coords 0 10000 20 -1 200 140 1 0 0;
#X restore 7 232 graph;
#X obj 99 79 f;
#X obj 35 -6 t f b b;
#X obj 35 -52 t l b;
#X obj 247 -28 list split 1;
#X obj 286 18 list append;
#X obj 334 78 + 1;
#X obj 305 78 f;
#X obj 247 -7 t f b b;
#X obj 247 -53 t l b;
#X obj 466 -29 list split 1;
#X obj 505 16 list append;
#X obj 553 77 + 1;
#X obj 524 77 f;
#X obj 466 -8 t f b b;
#X obj 466 -54 t l b;
#X obj 247 -75 r $amp;
#X obj 466 -76 r $all;
#X msg 114 51 -1;
#X msg 320 51 -1;
#X msg 539 50 -1;
#X floatatom 787 106 0 0 99 1 index - -;
#X floatatom 700 106 0 0 0 0 value - -;
#X obj 700 -25 list split 1;
#X obj 739 20 list append;
#X obj 787 81 + 1;
#X obj 758 81 f;
#X obj 700 -4 t f b b;
#X obj 700 -50 t l b;
#X msg 773 54 -1;
#X obj 700 127 tabwrite \$0-amp_n;
#N canvas 0 0 450 300 (subpatch) 0;
#X array \$0-amp_n 30 float 1;
#A 0 0.0625 0.0625 0.125 0.1125 0.1125 0.025 0 0 0 0 0 0 0 0 0 0 0
0 0 0 0 0 0 0 0 0 0 0 0 0;
#X coords 0 1 29 0 200 140 1 0 0;
#X restore 694 233 graph;
#X obj 700 -72 r $amp_n;
#X connect 0 0 2 1;
#X connect 1 0 2 0;
#X connect 3 0 7 1;
#X connect 4 0 7 0;
#X connect 5 0 8 1;
#X connect 6 0 8 0;
#X connect 9 0 17 0;
#X connect 9 1 11 1;
#X connect 10 0 18 0;
#X connect 11 0 9 0;
#X connect 12 0 0 0;
#X connect 12 0 16 1;
#X connect 16 0 12 0;
#X connect 17 0 1 0;
#X connect 17 1 16 0;
#X connect 17 2 11 0;
#X connect 18 0 9 0;
#X connect 18 1 33 0;
#X connect 19 0 23 0;
#X connect 19 1 20 1;
#X connect 20 0 19 0;
#X connect 21 0 22 1;
#X connect 21 0 3 0;
#X connect 22 0 21 0;
#X connect 23 0 4 0;
#X connect 23 1 22 0;
#X connect 23 2 20 0;
#X connect 24 0 19 0;
#X connect 24 1 34 0;
#X connect 25 0 29 0;
#X connect 25 1 26 1;
#X connect 26 0 25 0;
#X connect 27 0 28 1;
#X connect 27 0 5 0;
#X connect 28 0 27 0;
#X connect 29 0 6 0;
#X connect 29 1 28 0;
#X connect 29 2 26 0;
#X connect 30 0 25 0;
#X connect 30 1 35 0;
#X connect 31 0 24 0;
#X connect 32 0 30 0;
#X connect 33 0 16 1;
#X connect 34 0 22 1;
#X connect 35 0 28 1;
#X connect 36 0 45 1;
#X connect 37 0 45 0;
#X connect 38 0 42 0;
#X connect 38 1 39 1;
#X connect 39 0 38 0;
#X connect 40 0 41 1;
#X connect 40 0 36 0;
#X connect 41 0 40 0;
#X connect 42 0 37 0;
#X connect 42 1 41 0;
#X connect 42 2 39 0;
#X connect 43 0 38 0;
#X connect 43 1 44 0;
#X connect 44 0 41 1;
#X connect 47 0 43 0;
#X restore 1064 -137 pd criaVetores;
#X obj 642 -37 t b b b l l;
#X obj 871 -10 s $freq;
#X obj 1090 -43 t b b l l l;
#X obj 1268 -18 s $amp;
#X msg 535 -30 0.5;
#X obj 220 -39 t b b b b;
#X connect 0 0 103 0;
#X connect 1 0 2 0;
#X connect 1 0 104 0;
#X connect 3 0 15 0;
#X connect 4 0 5 0;
#X connect 4 0 9 0;
#X connect 5 0 19 0;
#X connect 5 1 6 0;
#X connect 6 0 8 1;
#X connect 7 0 4 0;
#X connect 8 0 7 0;
#X connect 9 0 4 1;
#X connect 10 0 4 1;
#X connect 11 0 14 1;
#X connect 12 0 13 1;
#X connect 15 0 8 0;
#X connect 15 1 10 0;
#X connect 16 0 5 1;
#X connect 18 0 14 0;
#X connect 19 0 20 0;
#X connect 19 1 18 0;
#X connect 19 2 12 0;
#X connect 19 3 11 0;
#X connect 20 0 13 0;
#X connect 23 0 22 0;
#X connect 26 0 27 0;
#X connect 26 0 31 0;
#X connect 27 0 42 0;
#X connect 27 1 28 0;
#X connect 28 0 30 1;
#X connect 29 0 26 0;
#X connect 30 0 29 0;
#X connect 31 0 26 1;
#X connect 32 0 26 1;
#X connect 33 0 36 0;
#X connect 34 0 33 1;
#X connect 36 0 35 0;
#X connect 37 0 38 0;
#X connect 38 0 27 1;
#X connect 39 0 16 0;
#X connect 40 0 41 0;
#X connect 42 0 33 0;
#X connect 42 1 34 0;
#X connect 43 0 45 0;
#X connect 44 0 45 1;
#X connect 46 0 47 0;
#X connect 46 0 51 0;
#X connect 47 0 55 0;
#X connect 47 1 48 0;
#X connect 48 0 50 1;
#X connect 49 0 46 0;
#X connect 50 0 49 0;
#X connect 51 0 46 1;
#X connect 52 0 46 1;
#X connect 53 0 47 1;
#X connect 54 0 50 0;
#X connect 54 1 52 0;
#X connect 55 0 43 0;
#X connect 55 1 44 0;
#X connect 56 0 83 0;
#X connect 57 0 58 1;
#X connect 59 0 60 0;
#X connect 59 0 64 0;
#X connect 60 0 68 0;
#X connect 60 1 61 0;
#X connect 61 0 63 1;
#X connect 62 0 59 0;
#X connect 63 0 62 0;
#X connect 64 0 59 1;
#X connect 65 0 59 1;
#X connect 66 0 60 1;
#X connect 67 0 63 0;
#X connect 67 1 65 0;
#X connect 68 0 56 0;
#X connect 68 1 79 0;
#X connect 70 0 71 0;
#X connect 70 0 74 0;
#X connect 71 0 78 0;
#X connect 71 1 85 0;
#X connect 72 0 70 0;
#X connect 73 0 72 0;
#X connect 74 0 70 1;
#X connect 75 0 70 1;
#X connect 76 0 71 1;
#X connect 77 0 73 0;
#X connect 77 1 75 0;
#X connect 78 0 86 0;
#X connect 78 1 84 0;
#X connect 79 0 57 0;
#X connect 80 0 79 1;
#X connect 81 0 58 0;
#X connect 82 0 81 1;
#X connect 83 0 81 0;
#X connect 83 1 82 0;
#X connect 84 0 69 1;
#X connect 85 0 73 1;
#X connect 86 0 69 0;
#X connect 88 0 89 0;
#X connect 88 0 92 0;
#X connect 89 0 96 0;
#X connect 89 1 98 0;
#X connect 90 0 88 0;
#X connect 91 0 90 0;
#X connect 92 0 88 1;
#X connect 93 0 88 1;
#X connect 94 0 89 1;
#X connect 95 0 91 0;
#X connect 95 1 93 0;
#X connect 96 0 99 0;
#X connect 96 1 100 0;
#X connect 97 0 87 1;
#X connect 98 0 91 1;
#X connect 99 0 87 0;
#X connect 100 0 97 0;
#X connect 101 0 100 1;
#X connect 103 0 1 1;
#X connect 106 0 105 0;
#X connect 106 0 105 1;
#X connect 107 0 117 0;
#X connect 108 0 112 0;
#X connect 109 0 114 0;
#X connect 110 0 82 1;
#X connect 112 0 30 0;
#X connect 112 1 32 0;
#X connect 112 2 23 0;
#X connect 112 3 40 0;
#X connect 112 4 113 0;
#X connect 114 0 77 0;
#X connect 114 1 95 0;
#X connect 114 2 1 0;
#X connect 114 3 0 0;
#X connect 114 4 115 0;
#X connect 116 0 105 1;
#X connect 117 0 3 0;
#X connect 117 1 54 0;
#X connect 117 2 67 0;
#X connect 117 3 116 0;
