#N canvas 290 94 1132 802 10;
#X obj 1253 11 list-accum;
#X obj 1190 52 list-math /;
#X obj 20 98 delay 2000;
#X obj 20 207 f;
#X obj 20 227 moses;
#X obj 104 218 bang;
#X obj 20 161 t b b;
#X obj 20 142 until;
#X obj 54 207 + 1;
#X msg 35 186 0;
#X msg 71 276 symbol amp\$1;
#X msg 73 324 symbol freq\$1;
#X obj 56 344 s;
#X obj 56 298 s;
#X obj 20 119 t b b;
#X text 6 74 Para de tocar após 2 segundos;
#X msg 37 275 0;
#X obj 20 247 t b b f f;
#X msg 20 317 0;
#N canvas 487 340 450 300 parciais 0;
#X obj 10 0 parcial 0;
#X obj 10 30 parcial 1;
#X obj 10 60 parcial 2;
#X obj 10 90 parcial 3;
#X obj 10 120 parcial 4;
#X obj 10 150 parcial 5;
#X restore 1063 -163 pd parciais;
#X obj 772 127 s pd-parciais;
#X text 1086 -92 Normaliza as amplitudes;
#X text 253 -186 Define os parciais que devem ser tocados \, manda
tocar \, e para após um tempo.;
#X obj 642 175 f;
#X obj 642 199 moses;
#X obj 726 176 bang;
#X obj 642 119 t b b;
#X obj 642 93 until;
#X obj 676 175 + 1;
#X msg 657 149 0;
#X obj 642 258 pack f f;
#X obj 687 238 * 30;
#X obj 642 298 s pd-parciais;
#X msg 642 278 obj 10 \$2 parcial \$1;
#X obj 780 8 list length;
#X obj 642 221 t f f;
#X obj 239 206 tabread \$0-freq;
#X msg 254 227 symbol freq\$1;
#X obj 239 248 s;
#X obj 239 138 f;
#X obj 239 162 moses;
#X obj 323 139 bang;
#X obj 239 82 t b b;
#X obj 239 56 until;
#X obj 273 138 + 1;
#X msg 254 112 0;
#X obj 239 35 t b b;
#X obj 239 184 t f f;
#X obj 370 209 tabread \$0-freq;
#X msg 385 230 symbol freq\$1;
#X obj 370 319 s;
#X obj 370 141 f;
#X obj 370 165 moses;
#X obj 454 142 bang;
#X obj 370 85 t b b;
#X obj 370 59 until;
#X obj 404 141 + 1;
#X msg 385 115 0;
#X obj 370 38 t b b;
#X obj 370 187 t f f;
#X obj 1090 386 s;
#X obj 1090 276 f;
#X obj 1090 300 moses;
#X obj 1090 220 t b b;
#X obj 1090 194 until;
#X obj 1124 276 + 1;
#X msg 1105 250 0;
#X obj 1090 173 t b b;
#X obj 1090 322 t f f;
#X obj 414 192 +;
#X obj 370 300 *;
#X obj 397 283 f;
#X obj 370 262 t f b;
#X msg 1105 365 symbol amp\$1;
#X obj 1174 277 bang;
#X obj 1090 344 tabread \$0-amp_n;
#X obj 1215 385 s;
#X obj 1215 275 f;
#X obj 1215 299 moses;
#X obj 1215 219 t b b;
#X obj 1215 193 until;
#X obj 1249 275 + 1;
#X msg 1230 249 0;
#X obj 1215 172 t b b;
#X obj 1215 321 t f f;
#X msg 1230 364 symbol amp\$1;
#X obj 1299 283 bang;
#X obj 1215 343 tabread \$0-amp_n;
#X obj 1259 321 +;
#X text 774 75 Limpa os parciais anteriores;
#X obj 220 -64 inlet toca;
#X obj 642 -58 inlet freq;
#X obj 412 -63 inlet intervalo;
#N canvas 65 292 1087 588 criaVetores 0;
#X floatatom 128 103 0 0 99 1 index - -;
#X floatatom 35 103 0 0 0 0 value - -;
#X obj 35 124 tabwrite \$0-freq;
#X floatatom 334 102 0 0 99 1 index - -;
#X floatatom 247 102 0 0 0 0 value - -;
#X obj 247 123 tabwrite \$0-amp;
#X obj 35 -27 list split 1;
#X obj 74 16 list append;
#X obj 128 79 + 1;
#N canvas 0 0 450 300 (subpatch) 0;
#X array \$0-amp 50 float 3;
#A 0 1 1 1 0.000317479 0.000423306 0.000564408 0.000752543 0.00100339
0.00133786 0.00178381 0.00237841 0.00317121 0.00422828 0.00563771 0.00751695
0.0100226 0.0133635 0.0178179 0.0237573 0.0316764 0.0422351 0.0563135
0.0750847 0.100113 0.133484 0.177979 0.237305 0.316406 0.421875 0.5625
0.75 1 0 0 0 0 0 0 0 0 0 0 0 0 0 0 0 0 0 0;
#X coords 0 1 50 0 200 140 1 0 0;
#X restore 224 231 graph;
#N canvas 0 0 450 300 (subpatch) 0;
#X array \$0-freq 50 float 3;
#A 0 622 440 13200 12760 12320 11880 11440 11000 10560 10120 9680 9240
8800 8360 7920 7480 7040 6600 6160 5720 5280 4840 4400 3960 3520 3080
2640 2200 1760 1320 880 440 0 0 0 0 0 0 0 0 0 0 0 0 0 0 0 0 0 0;
#X coords 0 10000 50 -1 200 140 1 0 0;
#X restore 7 232 graph;
#X obj 99 79 f;
#X obj 35 -6 t f b b;
#X obj 35 -52 t l b;
#X obj 247 -28 list split 1;
#X obj 286 18 list append;
#X obj 334 78 + 1;
#X obj 305 78 f;
#X obj 247 -7 t f b b;
#X obj 247 -53 t l b;
#X msg 114 51 -1;
#X msg 320 51 -1;
#X floatatom 546 105 0 0 99 1 index - -;
#X floatatom 459 105 0 0 0 0 value - -;
#X obj 459 -26 list split 1;
#X obj 498 19 list append;
#X obj 546 80 + 1;
#X obj 517 80 f;
#X obj 459 -5 t f b b;
#X obj 459 -51 t l b;
#X msg 532 53 -1;
#X obj 459 126 tabwrite \$0-amp_n;
#N canvas 0 0 450 300 (subpatch) 0;
#X array \$0-amp_n 50 float 1;
#A 0 0.111111 0.111111 0.111111 2.64592e-05 3.5279e-05 4.70387e-05
6.27182e-05 8.36242e-05 0.0001115 0.000148666 0.000198221 0.000264294
0.000352392 0.000469856 0.000626475 0.0008353 0.00111374 0.00148497
0.00197997 0.00263996 0.00351994 0.00469326 0.00625769 0.00834359 0.0111248
0.0148331 0.0197774 0.0263698 0.0351598 0.0468797 0.0625063 0.0833417
0 0 0 0 0 0 0 0 0 0 0 0 0 0 0 0 0 0;
#X coords 0 1 49 0 200 140 1 0 0;
#X restore 453 232 graph;
#X obj 35 -74 r \$0-lfreq;
#X obj 247 -75 r \$0-lamp;
#X obj 459 -73 r \$0-lamp_n;
#X connect 0 0 2 1;
#X connect 1 0 2 0;
#X connect 3 0 5 1;
#X connect 4 0 5 0;
#X connect 6 0 12 0;
#X connect 6 1 7 1;
#X connect 7 0 6 0;
#X connect 8 0 0 0;
#X connect 8 0 11 1;
#X connect 11 0 8 0;
#X connect 12 0 1 0;
#X connect 12 1 11 0;
#X connect 12 2 7 0;
#X connect 13 0 6 0;
#X connect 13 1 20 0;
#X connect 14 0 18 0;
#X connect 14 1 15 1;
#X connect 15 0 14 0;
#X connect 16 0 17 1;
#X connect 16 0 3 0;
#X connect 17 0 16 0;
#X connect 18 0 4 0;
#X connect 18 1 17 0;
#X connect 18 2 15 0;
#X connect 19 0 14 0;
#X connect 19 1 21 0;
#X connect 20 0 11 1;
#X connect 21 0 17 1;
#X connect 22 0 31 1;
#X connect 23 0 31 0;
#X connect 24 0 28 0;
#X connect 24 1 25 1;
#X connect 25 0 24 0;
#X connect 26 0 27 1;
#X connect 26 0 22 0;
#X connect 27 0 26 0;
#X connect 28 0 23 0;
#X connect 28 1 27 0;
#X connect 28 2 25 0;
#X connect 29 0 24 0;
#X connect 29 1 30 0;
#X connect 30 0 27 1;
#X connect 33 0 13 0;
#X connect 34 0 19 0;
#X connect 35 0 29 0;
#X restore 1063 -140 pd criaVetores;
#X msg 772 92 editmode 1 \, clear;
#X obj 1090 -70 inlet amp;
#X obj 642 -37 t b b b l l;
#X msg 488 0 menusave;
#X obj 488 21 s pd-tocaParciais.pd;
#X obj 1349 14 s \$0-lamp;
#X obj 1190 75 s \$0-lamp_n;
#X obj 871 -10 s \$0-lfreq;
#X obj 780 29 s \$0-tam;
#X obj 1141 203 r \$0-tam;
#X obj 1266 202 r \$0-tam;
#X obj 1274 301 r \$0-tam;
#X obj 429 172 r \$0-tam;
#X obj 421 68 r \$0-tam;
#X obj 290 65 r \$0-tam;
#X obj 85 161 r \$0-tam;
#X obj 693 102 r \$0-tam;
#X obj 693 123 * 3;
#X obj 176 594 tabread \$0-freq;
#X msg 191 615 symbol freq\$1;
#X obj 176 636 s;
#X obj 176 526 f;
#X obj 176 550 moses;
#X obj 260 527 bang;
#X obj 176 470 t b b;
#X obj 176 444 until;
#X obj 210 526 + 1;
#X msg 191 500 0;
#X obj 176 423 t b b;
#X obj 176 572 t f f;
#X obj 307 597 tabread \$0-freq;
#X msg 322 618 symbol freq\$1;
#X obj 307 707 s;
#X obj 307 529 f;
#X obj 307 553 moses;
#X obj 391 530 bang;
#X obj 307 473 t b b;
#X obj 307 447 until;
#X obj 341 529 + 1;
#X msg 322 503 0;
#X obj 307 426 t b b;
#X obj 307 575 t f f;
#X obj 351 580 +;
#X obj 307 688 *;
#X obj 334 671 f;
#X obj 307 650 t f b;
#X obj 358 456 r \$0-tam;
#X obj 227 453 r \$0-tam;
#X obj 349 356 inlet intervalo2;
#X obj 220 -39 t b b b b b b;
#X obj 435 543 r \$0-tam;
#X obj 435 563 * 2;
#X obj 85 181 * 3;
#X obj 1253 31 * 3;
#X obj 1363 385 s;
#X obj 1363 275 f;
#X obj 1363 299 moses;
#X obj 1363 219 t b b;
#X obj 1363 193 until;
#X obj 1397 275 + 1;
#X msg 1378 249 0;
#X obj 1363 172 t b b;
#X obj 1363 321 t f f;
#X msg 1378 364 symbol amp\$1;
#X obj 1447 283 bang;
#X obj 1363 343 tabread \$0-amp_n;
#X obj 1407 321 +;
#X obj 1414 202 r \$0-tam;
#X obj 1493 303 r \$0-tam;
#X obj 1493 323 * 2;
#X obj 1090 -43 t b b b l l l;
#X text 422 -95 Os intervalos devem ser os exatos para multiplicar
pela frequencia;
#N canvas 990 600 450 300 saidaAudio 0;
#X obj -26163 -16 catch~ outL;
#X obj -26161 225 dac~;
#X obj -26063 -16 loadbang;
#X obj -26063 34 metro 200;
#X obj -26063 60 tabwrite~ arrayOutL;
#N canvas 0 50 450 250 (subpatch) 0;
#X array arrayOutL 100 float 1;
#A 0 0.113691 0.103497 0.0916942 0.078315 0.063431 0.0471574 0.0296469
0.0110819 -0.00832668 -0.0283416 -0.0487026 -0.0691382 -0.0893716 -0.109119
-0.128108 -0.146076 -0.162773 -0.177982 -0.191503 -0.203174 -0.212877
-0.220517 -0.226055 -0.229481 -0.230839 -0.230201 -0.227685 -0.223442
-0.217641 -0.210494 -0.202227 -0.193073 -0.183274 -0.173079 -0.162731
-0.152454 -0.142452 -0.132913 -0.123995 -0.115813 -0.108454 -0.101967
-0.0963453 -0.0915594 -0.0875329 -0.0841428 -0.0812384 -0.0786367 -0.0761279
-0.0734751 -0.0704376 -0.0667586 -0.0621815 -0.0564645 -0.0493701 -0.0406925
-0.0302531 -0.0179055 -0.00354896 0.0128676 0.0313484 0.0518415 0.074239
0.0983776 0.124032 0.150933 0.178755 0.207125 0.235638 0.26385 0.291295
0.31749 0.341947 0.364182 0.383716 0.400106 0.41293 0.421815 0.426441
0.426536 0.421908 0.412428 0.39804 0.378776 0.354742 0.326124 0.29319
0.256286 0.215822 0.172275 0.126184 0.0781345 0.0287452 -0.02133 -0.0714182
-0.120845 -0.168942 -0.215058 -0.258563 -0.298876;
#X coords 0 1 99 -1 200 140 1 0 0;
#X restore -25935 9 graph;
#X obj -26162 200 *~;
#X obj -26147 98 r volume;
#X obj -26147 179 vline~;
#X obj -26147 137 pack f f;
#X obj -26102 116 r rampaDelay;
#X msg -26147 159 \$1 \$2;
#X text -26093 216 Sempre que se quiser audio \, deve enviar o volume
e o tempo para mudança;
#X connect 0 0 4 0;
#X connect 0 0 6 0;
#X connect 2 0 3 0;
#X connect 3 0 4 0;
#X connect 6 0 1 0;
#X connect 6 0 1 1;
#X connect 7 0 9 0;
#X connect 8 0 6 1;
#X connect 9 0 11 0;
#X connect 10 0 9 1;
#X connect 11 0 8 0;
#X restore 1063 -117 pd saidaAudio;
#X text 25 36 Conexao removida para teste;
#X connect 0 0 147 0;
#X connect 1 0 100 0;
#X connect 2 0 14 0;
#X connect 3 0 4 0;
#X connect 3 0 8 0;
#X connect 4 0 17 0;
#X connect 4 1 5 0;
#X connect 5 0 7 1;
#X connect 6 0 3 0;
#X connect 7 0 6 0;
#X connect 8 0 3 1;
#X connect 9 0 3 1;
#X connect 10 0 13 1;
#X connect 11 0 12 1;
#X connect 14 0 7 0;
#X connect 14 1 9 0;
#X connect 16 0 13 0;
#X connect 17 0 18 0;
#X connect 17 2 11 0;
#X connect 17 3 10 0;
#X connect 18 0 12 0;
#X connect 23 0 24 0;
#X connect 23 0 28 0;
#X connect 24 0 35 0;
#X connect 24 1 25 0;
#X connect 25 0 27 1;
#X connect 26 0 23 0;
#X connect 27 0 26 0;
#X connect 28 0 23 1;
#X connect 29 0 23 1;
#X connect 30 0 33 0;
#X connect 31 0 30 1;
#X connect 33 0 32 0;
#X connect 34 0 102 0;
#X connect 35 0 30 0;
#X connect 35 1 31 0;
#X connect 36 0 38 0;
#X connect 37 0 38 1;
#X connect 39 0 40 0;
#X connect 39 0 44 0;
#X connect 40 0 47 0;
#X connect 40 1 41 0;
#X connect 41 0 43 1;
#X connect 42 0 39 0;
#X connect 43 0 42 0;
#X connect 44 0 39 1;
#X connect 45 0 39 1;
#X connect 46 0 43 0;
#X connect 46 1 45 0;
#X connect 47 0 36 0;
#X connect 47 1 37 0;
#X connect 48 0 72 0;
#X connect 49 0 50 1;
#X connect 51 0 52 0;
#X connect 51 0 56 0;
#X connect 52 0 59 0;
#X connect 52 1 53 0;
#X connect 53 0 55 1;
#X connect 54 0 51 0;
#X connect 55 0 54 0;
#X connect 56 0 51 1;
#X connect 57 0 51 1;
#X connect 58 0 55 0;
#X connect 58 1 57 0;
#X connect 59 0 48 0;
#X connect 59 1 69 0;
#X connect 61 0 62 0;
#X connect 61 0 65 0;
#X connect 62 0 68 0;
#X connect 62 1 74 0;
#X connect 63 0 61 0;
#X connect 64 0 63 0;
#X connect 65 0 61 1;
#X connect 66 0 61 1;
#X connect 67 0 64 0;
#X connect 67 1 66 0;
#X connect 68 0 75 0;
#X connect 68 1 73 0;
#X connect 69 0 49 0;
#X connect 70 0 50 0;
#X connect 71 0 70 1;
#X connect 72 0 70 0;
#X connect 72 1 71 0;
#X connect 73 0 60 1;
#X connect 74 0 64 1;
#X connect 75 0 60 0;
#X connect 77 0 78 0;
#X connect 77 0 81 0;
#X connect 78 0 84 0;
#X connect 78 1 86 0;
#X connect 79 0 77 0;
#X connect 80 0 79 0;
#X connect 81 0 77 1;
#X connect 82 0 77 1;
#X connect 83 0 80 0;
#X connect 83 1 82 0;
#X connect 84 0 87 0;
#X connect 84 1 88 0;
#X connect 85 0 76 1;
#X connect 86 0 80 1;
#X connect 87 0 76 0;
#X connect 88 0 85 0;
#X connect 90 0 143 0;
#X connect 91 0 96 0;
#X connect 92 0 71 1;
#X connect 94 0 20 0;
#X connect 95 0 164 0;
#X connect 96 0 27 0;
#X connect 96 1 29 0;
#X connect 96 2 94 0;
#X connect 96 3 34 0;
#X connect 96 4 101 0;
#X connect 97 0 98 0;
#X connect 103 0 62 1;
#X connect 104 0 78 1;
#X connect 105 0 88 1;
#X connect 106 0 69 1;
#X connect 107 0 52 1;
#X connect 108 0 40 1;
#X connect 109 0 146 0;
#X connect 110 0 111 0;
#X connect 111 0 24 1;
#X connect 112 0 114 0;
#X connect 113 0 114 1;
#X connect 115 0 116 0;
#X connect 115 0 120 0;
#X connect 116 0 123 0;
#X connect 116 1 117 0;
#X connect 117 0 119 1;
#X connect 118 0 115 0;
#X connect 119 0 118 0;
#X connect 120 0 115 1;
#X connect 121 0 115 1;
#X connect 122 0 119 0;
#X connect 122 1 121 0;
#X connect 123 0 112 0;
#X connect 123 1 113 0;
#X connect 124 0 139 0;
#X connect 125 0 126 1;
#X connect 127 0 128 0;
#X connect 127 0 132 0;
#X connect 128 0 135 0;
#X connect 128 1 129 0;
#X connect 129 0 131 1;
#X connect 130 0 127 0;
#X connect 131 0 130 0;
#X connect 132 0 127 1;
#X connect 133 0 127 1;
#X connect 134 0 131 0;
#X connect 134 1 133 0;
#X connect 135 0 124 0;
#X connect 135 1 136 0;
#X connect 136 0 125 0;
#X connect 137 0 126 0;
#X connect 138 0 137 1;
#X connect 139 0 137 0;
#X connect 139 1 138 0;
#X connect 140 0 128 1;
#X connect 141 0 116 1;
#X connect 142 0 138 1;
#X connect 143 1 46 0;
#X connect 143 2 58 0;
#X connect 143 3 122 0;
#X connect 143 4 134 0;
#X connect 143 5 97 0;
#X connect 144 0 145 0;
#X connect 145 0 136 1;
#X connect 146 0 4 1;
#X connect 147 0 1 1;
#X connect 149 0 150 0;
#X connect 149 0 153 0;
#X connect 150 0 156 0;
#X connect 150 1 158 0;
#X connect 151 0 149 0;
#X connect 152 0 151 0;
#X connect 153 0 149 1;
#X connect 154 0 149 1;
#X connect 155 0 152 0;
#X connect 155 1 154 0;
#X connect 156 0 159 0;
#X connect 156 1 160 0;
#X connect 157 0 148 1;
#X connect 158 0 152 1;
#X connect 159 0 148 0;
#X connect 160 0 157 0;
#X connect 161 0 150 1;
#X connect 162 0 163 0;
#X connect 163 0 160 1;
#X connect 164 0 67 0;
#X connect 164 1 83 0;
#X connect 164 2 155 0;
#X connect 164 3 1 0;
#X connect 164 4 0 0;
#X connect 164 5 99 0;
